AdventPro-blk_wd_it.ufo
<glyph name="percent" format="2">
  <advance width="1095" height="962"/>
  <unicode hex="0025"/>
  <outline>
    <contour>
      <point x="33" y="0" type="line"/>
      <point x="933.457" y="700" type="line"/>
      <point x="1206" y="700" type="line"/>
      <point x="305.864" y="0" type="line"/>
    </contour>
    <contour>
      <point x="434" y="715" type="curve" smooth="yes"/>
      <point x="551" y="715"/>
      <point x="638" y="650"/>
      <point x="621" y="570" type="curve" smooth="yes"/>
      <point x="604" y="489"/>
      <point x="489" y="423"/>
      <point x="372" y="423" type="curve" smooth="yes"/>
      <point x="251" y="423"/>
      <point x="166" y="489"/>
      <point x="183" y="570" type="curve" smooth="yes"/>
      <point x="200" y="650"/>
      <point x="313" y="715"/>
    </contour>
    <contour>
      <point x="407.813" y="594" type="curve" smooth="yes"/>
      <point x="367.48" y="594"/>
      <point x="349.233" y="582.81"/>
      <point x="346.48" y="569.733" type="curve" smooth="yes"/>
      <point x="343.632" y="556.21"/>
      <point x="357.213" y="545"/>
      <point x="397.546" y="545" type="curve" smooth="yes"/>
      <point x="436.013" y="545"/>
      <point x="455.566" y="556.21"/>
      <point x="458.413" y="569.733" type="curve" smooth="yes"/>
      <point x="461.166" y="582.81"/>
      <point x="446.279" y="594"/>
    </contour>
    <contour>
      <point x="883" y="278" type="curve" smooth="yes"/>
      <point x="1003" y="278"/>
      <point x="1086" y="213"/>
      <point x="1069" y="132" type="curve" smooth="yes"/>
      <point x="1052" y="51"/>
      <point x="941" y="-14"/>
      <point x="821" y="-14" type="curve" smooth="yes"/>
      <point x="699" y="-14"/>
      <point x="614" y="51"/>
      <point x="631" y="132" type="curve" smooth="yes"/>
      <point x="648" y="213"/>
      <point x="761" y="278"/>
    </contour>
    <contour>
      <point x="857.243" y="160" type="curve" smooth="yes"/>
      <point x="813.432" y="160"/>
      <point x="792.72" y="146.288"/>
      <point x="789.658" y="132" type="curve" smooth="yes"/>
      <point x="786.38" y="116.702"/>
      <point x="801.809" y="104"/>
      <point x="845.62" y="104" type="curve" smooth="yes"/>
      <point x="887.319" y="104"/>
      <point x="908.871" y="116.702"/>
      <point x="912.149" y="132" type="curve" smooth="yes"/>
      <point x="915.21" y="146.288"/>
      <point x="898.941" y="160"/>
    </contour>
  </outline>
</glyph>
<glyph name="parenright" format="2">
  <advance width="362"/>
  <unicode hex="0029"/>
  <outline>
    <contour>
      <point x="277" y="819" type="line"/>
      <point x="406" y="766"/>
      <point x="449" y="685"/>
      <point x="432" y="606" type="curve" smooth="yes"/>
      <point x="323" y="95" type="line" smooth="yes"/>
      <point x="306" y="13"/>
      <point x="237" y="-60"/>
      <point x="77" y="-117" type="curve"/>
      <point x="32" y="-35" type="line"/>
      <point x="54.4544" y="-25.2654"/>
      <point x="139.762" y="-0.7449"/>
      <point x="162" y="104" type="curve" smooth="yes"/>
      <point x="269" y="608" type="line" smooth="yes"/>
      <point x="289.408" y="704.128"/>
      <point x="215.185" y="723.708"/>
      <point x="196" y="731" type="curve"/>
    </contour>
  </outline>
</glyph>
<glyph name="asterisk" format="1">
  <advance width="382" height="962"/>
  <unicode hex="002A"/>
  <outline>
    <contour>
      <point x="204" y="655" type="line"/>
      <point x="273" y="620" type="line"/>
      <point x="279" y="700" type="line"/>
      <point x="399" y="700" type="line"/>
      <point x="372" y="620" type="line"/>
      <point x="448" y="656" type="line"/>
      <point x="471" y="551" type="line"/>
      <point x="385" y="531" type="line"/>
      <point x="428" y="466" type="line"/>
      <point x="311" y="397" type="line"/>
      <point x="292" y="484" type="line"/>
      <point x="235" y="397" type="line"/>
      <point x="151" y="468" type="line"/>
      <point x="218" y="533" type="line"/>
      <point x="143" y="552" type="line"/>
    </contour>
  </outline>
</glyph>
<glyph name="hyphen" format="2">
  <advance width="394" height="962"/>
  <unicode hex="002D"/>
  <outline>
    <contour>
      <point x="94" y="277" type="line"/>
      <point x="123" y="414" type="line"/>
      <point x="443" y="414" type="line"/>
      <point x="414" y="277" type="line"/>
    </contour>
  </outline>
</glyph>
<glyph name="zero" format="1">
  <advance width="701" height="962"/>
  <unicode hex="0030"/>
  <outline>
    <contour>
      <point x="142" y="508" type="line" smooth="yes"/>
      <point x="171" y="644"/>
      <point x="308" y="717"/>
      <point x="506" y="717" type="curve" smooth="yes"/>
      <point x="704" y="717"/>
      <point x="803" y="638"/>
      <point x="775" y="507" type="curve" smooth="yes"/>
      <point x="707" y="186" type="line"/>
      <point x="680" y="63"/>
      <point x="539" y="-11"/>
      <point x="350" y="-11" type="curve" smooth="yes"/>
      <point x="173" y="-11"/>
      <point x="46" y="56"/>
      <point x="74" y="186" type="curve" smooth="yes"/>
    </contour>
    <contour>
      <point x="257" y="223" type="line" smooth="yes"/>
      <point x="245" y="165"/>
      <point x="282" y="139"/>
      <point x="384" y="139" type="curve" smooth="yes"/>
      <point x="486" y="139"/>
      <point x="530" y="166"/>
      <point x="542" y="223" type="curve" smooth="yes"/>
      <point x="597" y="479" type="line" smooth="yes"/>
      <point x="610" y="541"/>
      <point x="570" y="563"/>
      <point x="468" y="563" type="curve" smooth="yes"/>
      <point x="366" y="563"/>
      <point x="325" y="542"/>
      <point x="312" y="478" type="curve"/>
    </contour>
  </outline>
</glyph>
<glyph name="colon" format="1">
  <advance width="197" height="962"/>
  <unicode hex="003A"/>
  <outline>
    <contour>
      <point x="207" y="145" type="curve" smooth="yes"/>
      <point x="197" y="102"/>
      <point x="155" y="67"/>
      <point x="112" y="67" type="curve" smooth="yes"/>
      <point x="68" y="67"/>
      <point x="41" y="102"/>
      <point x="51" y="145" type="curve" smooth="yes"/>
      <point x="60" y="187"/>
      <point x="101" y="222"/>
      <point x="145" y="222" type="curve" smooth="yes"/>
      <point x="188" y="222"/>
      <point x="216" y="187"/>
    </contour>
    <contour>
      <point x="258" y="385" type="curve" smooth="yes"/>
      <point x="248" y="342"/>
      <point x="206" y="307"/>
      <point x="163" y="307" type="curve" smooth="yes"/>
      <point x="119" y="307"/>
      <point x="92" y="342"/>
      <point x="102" y="385" type="curve" smooth="yes"/>
      <point x="111" y="427"/>
      <point x="152" y="462"/>
      <point x="196" y="462" type="curve" smooth="yes"/>
      <point x="239" y="462"/>
      <point x="267" y="427"/>
    </contour>
  </outline>
</glyph>
<glyph name="greater" format="2">
  <advance width="623" height="962"/>
  <unicode hex="003E"/>
  <outline>
    <contour>
      <point x="197" y="568" type="line"/>
      <point x="275" y="655" type="line"/>
      <point x="654" y="359" type="line"/>
      <point x="151" y="65" type="line"/>
      <point x="87" y="159" type="line"/>
      <point x="442" y="369" type="line"/>
    </contour>
  </outline>
</glyph>
<glyph name="question" format="1">
  <advance width="612" height="962"/>
  <unicode hex="003F"/>
  <outline>
    <contour>
      <point x="134" y="513" type="line"/>
      <point x="163" y="647"/>
      <point x="298" y="710"/>
      <point x="448" y="710" type="curve" smooth="yes"/>
      <point x="604" y="710"/>
      <point x="717" y="637"/>
      <point x="693" y="523" type="curve" smooth="yes"/>
      <point x="675" y="438"/>
      <point x="614" y="409"/>
      <point x="539" y="356" type="curve" smooth="yes"/>
      <point x="450" y="294"/>
      <point x="427" y="283"/>
      <point x="412" y="211" type="curve" smooth="yes"/>
      <point x="403" y="170" type="line"/>
      <point x="224" y="170" type="line"/>
      <point x="233" y="213" type="line" smooth="yes"/>
      <point x="254" y="309"/>
      <point x="314" y="374"/>
      <point x="381" y="419" type="curve" smooth="yes"/>
      <point x="444" y="463"/>
      <point x="508" y="492"/>
      <point x="515" y="525" type="curve" smooth="yes"/>
      <point x="520" y="551"/>
      <point x="501" y="575"/>
      <point x="423" y="575" type="curve" smooth="yes"/>
      <point x="351" y="575"/>
      <point x="317" y="550"/>
      <point x="309" y="513" type="curve"/>
    </contour>
    <contour>
      <point x="307" y="137" type="curve" smooth="yes"/>
      <point x="350" y="137"/>
      <point x="378" y="102"/>
      <point x="369" y="60" type="curve" smooth="yes"/>
      <point x="360" y="17"/>
      <point x="317" y="-18"/>
      <point x="274" y="-18" type="curve" smooth="yes"/>
      <point x="230" y="-18"/>
      <point x="204" y="17"/>
      <point x="213" y="60" type="curve" smooth="yes"/>
      <point x="222" y="102"/>
      <point x="263" y="137"/>
    </contour>
  </outline>
</glyph>
<glyph name="at" format="1">
  <advance width="1154" height="962"/>
  <unicode hex="0040"/>
  <outline>
    <contour>
      <point x="1207" y="359" type="line"/>
      <point x="1151" y="339"/>
      <point x="1138" y="301"/>
      <point x="1130" y="263" type="curve" smooth="yes"/>
      <point x="1108" y="159" type="line" smooth="yes"/>
      <point x="1072" y="-11"/>
      <point x="866" y="-147"/>
      <point x="527" y="-147" type="curve" smooth="yes"/>
      <point x="126" y="-147"/>
      <point x="32" y="5"/>
      <point x="74" y="202" type="curve" smooth="yes"/>
      <point x="108" y="361" type="line" smooth="yes"/>
      <point x="154" y="581"/>
      <point x="366" y="667"/>
      <point x="608" y="667" type="curve" smooth="yes"/>
      <point x="845" y="667"/>
      <point x="927" y="585"/>
      <point x="905" y="478" type="curve"/>
      <point x="987" y="479" type="line"/>
      <point x="923" y="327" type="line"/>
      <point x="873" y="327" type="line"/>
      <point x="825" y="105" type="line"/>
      <point x="827" y="105"/>
      <point x="725" y="42"/>
      <point x="567" y="42" type="curve" smooth="yes"/>
      <point x="358" y="42"/>
      <point x="327" y="119"/>
      <point x="347" y="211" type="curve" smooth="yes"/>
      <point x="369" y="316" type="line" smooth="yes"/>
      <point x="394" y="432"/>
      <point x="482" y="479"/>
      <point x="586" y="479" type="curve" smooth="yes"/>
      <point x="725" y="479" type="line"/>
      <point x="730" y="503"/>
      <point x="680" y="513"/>
      <point x="585" y="513" type="curve" smooth="yes"/>
      <point x="452" y="513"/>
      <point x="315" y="492"/>
      <point x="287" y="360" type="curve" smooth="yes"/>
      <point x="251" y="191" type="line" smooth="yes"/>
      <point x="222" y="56"/>
      <point x="356" y="11"/>
      <point x="564" y="11" type="curve" smooth="yes"/>
      <point x="749" y="11"/>
      <point x="909" y="69"/>
      <point x="930" y="169" type="curve" smooth="yes"/>
      <point x="945" y="238" type="line" smooth="yes"/>
      <point x="964" y="331"/>
      <point x="998" y="418"/>
      <point x="1140" y="479" type="curve"/>
    </contour>
    <contour>
      <point x="595" y="319" type="line" smooth="yes"/>
      <point x="565" y="319"/>
      <point x="549" y="311"/>
      <point x="543" y="281" type="curve" smooth="yes"/>
      <point x="534" y="238" type="line" smooth="yes"/>
      <point x="526" y="202"/>
      <point x="560" y="198"/>
      <point x="591" y="198" type="curve" smooth="yes"/>
      <point x="596" y="198"/>
      <point x="661" y="201"/>
      <point x="667" y="202" type="curve"/>
      <point x="692" y="319" type="line"/>
    </contour>
  </outline>
</glyph>
<glyph name="A" format="1">
  <advance width="798" height="962"/>
  <unicode hex="0041"/>
  <outline>
    <contour>
      <point x="773" y="0" type="line"/>
      <point x="585" y="0" type="line"/>
      <point x="569" y="115" type="line"/>
      <point x="276" y="115" type="line"/>
      <point x="215" y="0" type="line"/>
      <point x="26" y="0" type="line"/>
      <point x="410" y="700" type="line"/>
      <point x="683" y="700" type="line"/>
    </contour>
    <contour>
      <point x="364" y="272" type="line"/>
      <point x="549" y="272" type="line"/>
      <point x="516" y="554" type="line"/>
    </contour>
  </outline>
</glyph>
<glyph name="B" format="1">
  <advance width="725" height="962"/>
  <unicode hex="0042"/>
  <outline>
    <contour>
      <point x="542" y="700" type="line" smooth="yes"/>
      <point x="716" y="700"/>
      <point x="788" y="635"/>
      <point x="764" y="523" type="curve" smooth="yes"/>
      <point x="747" y="441"/>
      <point x="697" y="404"/>
      <point x="618" y="382" type="curve"/>
      <point x="703" y="361"/>
      <point x="758" y="307"/>
      <point x="737" y="206" type="curve" smooth="yes"/>
      <point x="710" y="81"/>
      <point x="609" y="0"/>
      <point x="401" y="0" type="curve" smooth="yes"/>
      <point x="41" y="0" type="line"/>
      <point x="190" y="700" type="line"/>
    </contour>
    <contour>
      <point x="477" y="430" type="line" smooth="yes"/>
      <point x="537" y="430"/>
      <point x="566" y="456"/>
      <point x="575" y="497" type="curve" smooth="yes"/>
      <point x="584" y="540"/>
      <point x="560" y="560"/>
      <point x="505" y="560" type="curve" smooth="yes"/>
      <point x="340" y="560" type="line"/>
      <point x="312" y="430" type="line"/>
    </contour>
    <contour>
      <point x="447" y="139" type="line" smooth="yes"/>
      <point x="488" y="139"/>
      <point x="539" y="154"/>
      <point x="551" y="214" type="curve" smooth="yes"/>
      <point x="564" y="273"/>
      <point x="523" y="290"/>
      <point x="479" y="290" type="curve" smooth="yes"/>
      <point x="283" y="290" type="line"/>
      <point x="251" y="139" type="line"/>
    </contour>
  </outline>
</glyph>
<glyph name="C" format="2">
  <advance width="606" height="962"/>
  <unicode hex="0043"/>
  <outline>
    <contour>
      <point x="627" y="534" type="line"/>
      <point x="569" y="543"/>
      <point x="531" y="549"/>
      <point x="460" y="549" type="curve" smooth="yes"/>
      <point x="406" y="549"/>
      <point x="331" y="546"/>
      <point x="320" y="494" type="curve" smooth="yes"/>
      <point x="259" y="207" type="line" smooth="yes"/>
      <point x="248" y="155"/>
      <point x="290" y="149"/>
      <point x="352" y="149" type="curve" smooth="yes"/>
      <point x="436" y="149"/>
      <point x="554" y="166"/>
      <point x="592" y="173" type="curve"/>
      <point x="584" y="23" type="line"/>
      <point x="492" y="1"/>
      <point x="408" y="-12"/>
      <point x="331" y="-12" type="curve" smooth="yes"/>
      <point x="145" y="-12"/>
      <point x="47" y="48"/>
      <point x="76" y="184" type="curve" smooth="yes"/>
      <point x="146" y="511" type="line" smooth="yes"/>
      <point x="176" y="653"/>
      <point x="313" y="712"/>
      <point x="478" y="712" type="curve" smooth="yes"/>
      <point x="550" y="712"/>
      <point x="620" y="701"/>
      <point x="687" y="677" type="curve"/>
    </contour>
  </outline>
</glyph>
<glyph name="E" format="1">
  <advance width="579" height="962"/>
  <unicode hex="0045"/>
  <outline>
    <contour>
      <point x="41" y="0" type="line"/>
      <point x="190" y="700" type="line"/>
      <point x="692" y="700" type="line"/>
      <point x="658" y="540" type="line"/>
      <point x="336" y="540" type="line"/>
      <point x="314" y="439" type="line"/>
      <point x="596" y="439" type="line"/>
      <point x="496" y="280" type="line"/>
      <point x="280" y="280" type="line"/>
      <point x="255" y="160" type="line"/>
      <point x="574" y="160" type="line"/>
      <point x="540" y="0" type="line"/>
    </contour>
  </outline>
</glyph>
<glyph name="L" format="1">
  <advance width="609" height="962"/>
  <unicode hex="004C"/>
  <outline>
    <contour>
      <point x="41" y="0" type="line"/>
      <point x="190" y="700" type="line"/>
      <point x="370" y="700" type="line"/>
      <point x="255" y="160" type="line"/>
      <point x="618" y="160" type="line"/>
      <point x="584" y="0" type="line"/>
    </contour>
  </outline>
</glyph>
<glyph name="N" format="2">
  <advance width="824"/>
  <unicode hex="004E"/>
  <outline>
    <contour>
      <point x="931" y="700" type="line"/>
      <point x="782" y="0" type="line"/>
      <point x="592" y="0" type="line"/>
      <point x="310" y="443" type="line"/>
      <point x="216" y="-1" type="line"/>
      <point x="41" y="0" type="line"/>
      <point x="190" y="700" type="line"/>
      <point x="365" y="700" type="line"/>
      <point x="656" y="245" type="line"/>
      <point x="753" y="700" type="line"/>
    </contour>
  </outline>
</glyph>
<glyph name="Q" format="1">
  <advance width="701" height="962"/>
  <unicode hex="0051"/>
  <outline>
    <component base="O"/>
    <contour>
      <point x="441" y="61" type="line" smooth="yes"/>
      <point x="427" y="-3"/>
      <point x="421" y="-32"/>
      <point x="619" y="-19" type="curve"/>
      <point x="564" y="-151" type="line"/>
      <point x="307" y="-151"/>
      <point x="271" y="-63"/>
      <point x="288" y="19" type="curve" smooth="yes"/>
      <point x="326" y="198" type="line"/>
      <point x="470" y="198" type="line"/>
    </contour>
  </outline>
</glyph>
<glyph name="R" format="2">
  <advance width="733" height="962"/>
  <unicode hex="0052"/>
  <outline>
    <contour>
      <point x="528" y="700" type="line" smooth="yes"/>
      <point x="685" y="700"/>
      <point x="840" y="672"/>
      <point x="790" y="439" type="curve" smooth="yes"/>
      <point x="765" y="321"/>
      <point x="704" y="240"/>
      <point x="625" y="205" type="curve"/>
      <point x="703" y="0" type="line"/>
      <point x="484" y="0" type="line"/>
      <point x="434" y="174" type="line"/>
      <point x="422" y="173"/>
      <point x="373" y="173"/>
      <point x="367" y="173" type="curve" smooth="yes"/>
      <point x="258" y="173" type="line"/>
      <point x="221" y="0" type="line"/>
      <point x="42" y="0" type="line"/>
      <point x="191" y="700" type="line"/>
    </contour>
    <contour>
      <point x="481" y="332" type="line" smooth="yes"/>
      <point x="537" y="332"/>
      <point x="586" y="355"/>
      <point x="604" y="437" type="curve" smooth="yes"/>
      <point x="619" y="506"/>
      <point x="580" y="535"/>
      <point x="524" y="535" type="curve" smooth="yes"/>
      <point x="335" y="535" type="line"/>
      <point x="292" y="332" type="line"/>
    </contour>
  </outline>
</glyph>
<glyph name="T" format="2">
  <advance width="635"/>
  <unicode hex="0054"/>
  <outline>
    <contour>
      <point x="521" y="539" type="line"/>
      <point x="406" y="0" type="line"/>
      <point x="227" y="0" type="line"/>
      <point x="342" y="539" type="line"/>
      <point x="130" y="539" type="line"/>
      <point x="164" y="700" type="line"/>
      <point x="770" y="700" type="line"/>
      <point x="736" y="539" type="line"/>
    </contour>
  </outline>
</glyph>
<glyph name="W" format="1">
  <advance width="1093" height="962"/>
  <unicode hex="0057"/>
  <outline>
    <contour>
      <point x="790" y="700" type="line"/>
      <point x="819" y="249" type="line"/>
      <point x="1036" y="700" type="line"/>
      <point x="1219" y="700" type="line"/>
      <point x="861" y="0" type="line"/>
      <point x="672" y="0" type="line"/>
      <point x="635" y="419" type="line"/>
      <point x="416" y="0" type="line"/>
      <point x="229" y="0" type="line"/>
      <point x="170" y="700" type="line"/>
      <point x="358" y="700" type="line"/>
      <point x="378" y="249" type="line"/>
      <point x="600" y="700" type="line"/>
    </contour>
  </outline>
</glyph>
<glyph name="Z" format="2">
  <advance width="804" height="962"/>
  <unicode hex="005A"/>
  <outline>
    <contour>
      <point x="191" y="700" type="line"/>
      <point x="903" y="700" type="line"/>
      <point x="865" y="520" type="line"/>
      <point x="375.449" y="192.991" type="line"/>
      <point x="355" y="180" type="line"/>
      <point x="805.787" y="179" type="line"/>
      <point x="768" y="0" type="line"/>
      <point x="28" y="0" type="line"/>
      <point x="65" y="175.955" type="line"/>
      <point x="553.825" y="506.363" type="line"/>
      <point x="575" y="520" type="line"/>
      <point x="153.213" y="521" type="line"/>
    </contour>
  </outline>
</glyph>
<glyph name="bracketleft" format="2">
  <advance width="350" height="962"/>
  <unicode hex="005B"/>
  <outline>
    <contour>
      <point x="364" y="655" type="line"/>
      <point x="239" y="61" type="line"/>
      <point x="314" y="54" type="line"/>
      <point x="276" y="-115" type="line"/>
      <point x="23" y="-115" type="line"/>
      <point x="221" y="819" type="line"/>
      <point x="474" y="819" type="line"/>
      <point x="442" y="660" type="line"/>
    </contour>
  </outline>
</glyph>
<glyph name="bracketright" format="2">
  <advance width="353" height="962"/>
  <unicode hex="005D"/>
  <outline>
    <contour>
      <point x="23" y="-115" type="line"/>
      <point x="59.2063" y="56" type="line"/>
      <point x="136.206" y="66" type="line"/>
      <point x="260.235" y="650" type="line"/>
      <point x="188.235" y="660" type="line"/>
      <point x="221" y="819" type="line"/>
      <point x="462" y="819" type="line"/>
      <point x="264" y="-115" type="line"/>
    </contour>
  </outline>
</glyph>
<glyph name="asciicircum" format="1">
  <advance width="267" height="962"/>
  <unicode hex="005E"/>
  <outline>
    <contour>
      <point x="452" y="800" type="line"/>
      <point x="365" y="724" type="line"/>
      <point x="303" y="785" type="line"/>
      <point x="209" y="723" type="line"/>
      <point x="157" y="803" type="line"/>
      <point x="330" y="921" type="line"/>
    </contour>
  </outline>
</glyph>
<glyph name="a" format="2">
  <advance width="643"/>
  <unicode hex="0061"/>
  <outline>
    <contour>
      <point x="500" y="368" type="curve"/>
      <point x="508" y="403"/>
      <point x="420" y="420"/>
      <point x="354" y="420" type="curve"/>
      <point x="387" y="510" type="line"/>
      <point x="628" y="510"/>
      <point x="708" y="481"/>
      <point x="671" y="307" type="curve" smooth="yes"/>
      <point x="606" y="0" type="line"/>
      <point x="521" y="-8"/>
      <point x="414" y="-11"/>
      <point x="314" y="-11" type="curve" smooth="yes"/>
      <point x="143" y="-11"/>
      <point x="31" y="18"/>
      <point x="60" y="156" type="curve" smooth="yes"/>
      <point x="79" y="246" type="line" smooth="yes"/>
      <point x="101" y="348"/>
      <point x="195" y="393"/>
      <point x="304" y="393" type="curve" smooth="yes"/>
      <point x="405" y="393"/>
      <point x="474" y="376"/>
    </contour>
    <contour>
      <point x="474" y="230" type="line"/>
      <point x="442" y="235"/>
      <point x="398" y="240"/>
      <point x="348" y="240" type="curve" smooth="yes"/>
      <point x="292" y="240"/>
      <point x="256" y="234"/>
      <point x="250" y="206" type="curve" smooth="yes"/>
      <point x="247" y="192" type="line" smooth="yes"/>
      <point x="239" y="156"/>
      <point x="290" y="151"/>
      <point x="346" y="151" type="curve" smooth="yes"/>
      <point x="396" y="151"/>
      <point x="458" y="154"/>
      <point x="458" y="154" type="curve"/>
    </contour>
  </outline>
</glyph>
<glyph name="b" format="2">
  <advance width="651"/>
  <unicode hex="0062"/>
  <outline>
    <contour>
      <point x="325" y="496" type="line"/>
      <point x="376" y="503"/>
      <point x="458" y="510"/>
      <point x="503" y="510" type="curve" smooth="yes"/>
      <point x="636" y="510"/>
      <point x="715" y="458"/>
      <point x="694" y="356" type="curve" smooth="yes"/>
      <point x="653" y="167" type="line" smooth="yes"/>
      <point x="621" y="16"/>
      <point x="495" y="-11"/>
      <point x="324" y="-11" type="curve" smooth="yes"/>
      <point x="236" y="-11"/>
      <point x="130" y="-3"/>
      <point x="41" y="0" type="curve"/>
      <point x="190" y="700" type="line"/>
      <point x="369" y="700" type="line"/>
    </contour>
    <contour>
      <point x="255" y="166" type="line"/>
      <point x="255" y="166"/>
      <point x="341" y="161"/>
      <point x="374" y="161" type="curve" smooth="yes"/>
      <point x="458" y="161"/>
      <point x="477" y="180"/>
      <point x="485" y="215" type="curve" smooth="yes"/>
      <point x="503" y="303" type="line" smooth="yes"/>
      <point x="511" y="337"/>
      <point x="463" y="336"/>
      <point x="435" y="336" type="curve" smooth="yes"/>
      <point x="388" y="336"/>
      <point x="306" y="331"/>
      <point x="290" y="329" type="curve"/>
    </contour>
  </outline>
</glyph>
<glyph name="h" format="2">
  <advance width="654" height="962"/>
  <unicode hex="0068"/>
  <outline>
    <contour>
      <point x="320" y="478" type="line"/>
      <point x="383" y="497"/>
      <point x="458" y="511"/>
      <point x="522" y="511" type="curve" smooth="yes"/>
      <point x="627" y="511"/>
      <point x="717" y="465"/>
      <point x="689" y="336" type="curve" smooth="yes"/>
      <point x="618" y="0" type="line"/>
      <point x="440" y="0" type="line"/>
      <point x="503" y="297" type="line" smooth="yes"/>
      <point x="510" y="328"/>
      <point x="481" y="341"/>
      <point x="441" y="341" type="curve" smooth="yes"/>
      <point x="393" y="341"/>
      <point x="336" y="333"/>
      <point x="287" y="326" type="curve"/>
      <point x="218" y="0" type="line"/>
      <point x="38" y="0" type="line"/>
      <point x="187" y="700" type="line"/>
      <point x="367" y="700" type="line"/>
    </contour>
  </outline>
</glyph>
<glyph name="o" format="1">
  <advance width="644" height="962"/>
  <unicode hex="006F"/>
  <outline>
    <contour>
      <point x="650" y="185" type="line" smooth="yes"/>
      <point x="625" y="67"/>
      <point x="510" y="-10"/>
      <point x="320" y="-10" type="curve" smooth="yes"/>
      <point x="113" y="-10"/>
      <point x="45" y="67"/>
      <point x="70" y="185" type="curve" smooth="yes"/>
      <point x="98" y="317" type="line" smooth="yes"/>
      <point x="124" y="439"/>
      <point x="243" y="512"/>
      <point x="435" y="512" type="curve" smooth="yes"/>
      <point x="617" y="512"/>
      <point x="704" y="439"/>
      <point x="678" y="317" type="curve" smooth="yes"/>
    </contour>
    <contour>
      <point x="495" y="295" type="line" smooth="yes"/>
      <point x="502" y="330"/>
      <point x="476" y="343"/>
      <point x="399" y="343" type="curve" smooth="yes"/>
      <point x="317" y="343"/>
      <point x="280" y="330"/>
      <point x="273" y="295" type="curve" smooth="yes"/>
      <point x="254" y="207" type="line" smooth="yes"/>
      <point x="247" y="174"/>
      <point x="273" y="159"/>
      <point x="360" y="159" type="curve" smooth="yes"/>
      <point x="437" y="159"/>
      <point x="469" y="173"/>
      <point x="476" y="207" type="curve" smooth="yes"/>
    </contour>
  </outline>
</glyph>
<glyph name="q" format="1">
  <advance width="654" height="962"/>
  <unicode hex="0071"/>
  <outline>
    <contour>
      <point x="434" y="10" type="line"/>
      <point x="400" y="-1"/>
      <point x="349" y="-11"/>
      <point x="264" y="-11" type="curve" smooth="yes"/>
      <point x="132" y="-11"/>
      <point x="39" y="35"/>
      <point x="70" y="177" type="curve" smooth="yes"/>
      <point x="106" y="346" type="line" smooth="yes"/>
      <point x="132" y="469"/>
      <point x="232" y="512"/>
      <point x="347" y="512" type="curve" smooth="yes"/>
      <point x="415" y="512"/>
      <point x="485" y="500"/>
      <point x="534" y="479" type="curve"/>
      <point x="538" y="501" type="line"/>
      <point x="719" y="501" type="line"/>
      <point x="568" y="-213" type="line"/>
      <point x="391" y="-192" type="line"/>
    </contour>
    <contour>
      <point x="499" y="319" type="line"/>
      <point x="470" y="327"/>
      <point x="418" y="339"/>
      <point x="370" y="339" type="curve" smooth="yes"/>
      <point x="322" y="339"/>
      <point x="283" y="338"/>
      <point x="276" y="306" type="curve" smooth="yes"/>
      <point x="252" y="192" type="line" smooth="yes"/>
      <point x="246" y="165"/>
      <point x="274" y="155"/>
      <point x="344" y="155" type="curve" smooth="yes"/>
      <point x="425" y="155"/>
      <point x="466" y="167"/>
      <point x="470" y="182" type="curve" smooth="yes"/>
    </contour>
  </outline>
</glyph>
<glyph name="r" format="1">
  <advance width="528" height="962"/>
  <unicode hex="0072"/>
  <outline>
    <contour>
      <point x="558" y="332" type="line"/>
      <point x="558" y="332"/>
      <point x="523" y="339"/>
      <point x="488" y="339" type="curve" smooth="yes"/>
      <point x="425" y="339"/>
      <point x="349" y="331"/>
      <point x="285" y="311" type="curve"/>
      <point x="219" y="0" type="line"/>
      <point x="39" y="0" type="line"/>
      <point x="145" y="501" type="line"/>
      <point x="325" y="501" type="line"/>
      <point x="321" y="481" type="line"/>
      <point x="379" y="503"/>
      <point x="454" y="516"/>
      <point x="516" y="516" type="curve" smooth="yes"/>
      <point x="556" y="516"/>
      <point x="589" y="509"/>
      <point x="608" y="501" type="curve"/>
    </contour>
  </outline>
</glyph>
<glyph name="s" format="1">
  <advance width="642" height="962"/>
  <unicode hex="0073"/>
  <outline>
    <contour>
      <point x="579" y="337" type="line"/>
      <point x="542" y="345"/>
      <point x="483" y="361"/>
      <point x="389" y="361" type="curve" smooth="yes"/>
      <point x="373" y="361"/>
      <point x="313" y="363"/>
      <point x="310" y="346" type="curve" smooth="yes"/>
      <point x="303" y="313"/>
      <point x="691" y="369"/>
      <point x="647" y="162" type="curve" smooth="yes"/>
      <point x="623" y="45"/>
      <point x="460" y="-15"/>
      <point x="319" y="-15" type="curve" smooth="yes"/>
      <point x="209" y="-15"/>
      <point x="108" y="18"/>
      <point x="39" y="77" type="curve"/>
      <point x="147" y="192" type="line"/>
      <point x="201" y="153"/>
      <point x="304" y="141"/>
      <point x="379" y="141" type="curve" smooth="yes"/>
      <point x="438" y="141"/>
      <point x="455" y="147"/>
      <point x="458" y="161" type="curve" smooth="yes"/>
      <point x="465" y="192"/>
      <point x="83" y="131"/>
      <point x="130" y="352" type="curve" smooth="yes"/>
      <point x="151" y="450"/>
      <point x="258" y="514"/>
      <point x="434" y="514" type="curve" smooth="yes"/>
      <point x="524" y="514"/>
      <point x="604" y="491"/>
      <point x="650" y="467" type="curve"/>
    </contour>
  </outline>
</glyph>
<glyph name="t" format="1">
  <advance width="458" height="962"/>
  <unicode hex="0074"/>
  <outline>
    <contour>
      <point x="267" y="218" type="line" smooth="yes"/>
      <point x="252" y="148"/>
      <point x="327" y="153"/>
      <point x="416" y="153" type="curve"/>
      <point x="312" y="-13" type="line"/>
      <point x="139" y="-11"/>
      <point x="52" y="56"/>
      <point x="76" y="169" type="curve" smooth="yes"/>
      <point x="189" y="700" type="line"/>
      <point x="370" y="700" type="line"/>
      <point x="327" y="500" type="line"/>
      <point x="536" y="500" type="line"/>
      <point x="471" y="321" type="line"/>
      <point x="289" y="321" type="line"/>
    </contour>
  </outline>
</glyph>
<glyph name="cent" format="1">
  <advance width="545" height="962"/>
  <unicode hex="00A2"/>
  <outline>
    <component base="c"/>
    <contour>
      <point x="247" y="-114" type="line"/>
      <point x="404" y="625" type="line"/>
      <point x="533" y="625" type="line"/>
      <point x="376" y="-114" type="line"/>
    </contour>
  </outline>
</glyph>
<glyph name="ordfeminine" format="1">
  <advance width="495" height="962"/>
  <unicode hex="00AA"/>
  <outline>
    <contour>
      <point x="527" y="392" type="curve"/>
      <point x="460" y="386"/>
      <point x="395" y="379"/>
      <point x="344" y="379" type="curve" smooth="yes"/>
      <point x="210" y="379"/>
      <point x="126" y="407"/>
      <point x="150" y="520" type="curve"/>
      <point x="166" y="582"/>
      <point x="231" y="633"/>
      <point x="333" y="633" type="curve" smooth="yes"/>
      <point x="369" y="633"/>
      <point x="406" y="625"/>
      <point x="442" y="611" type="curve"/>
      <point x="450" y="647"/>
      <point x="436" y="652"/>
      <point x="382" y="652" type="curve" smooth="yes"/>
      <point x="366" y="652"/>
      <point x="345" y="652"/>
      <point x="318" y="649" type="curve"/>
      <point x="346" y="710" type="line"/>
      <point x="401" y="716"/>
      <point x="479" y="716"/>
      <point x="524" y="689" type="curve"/>
      <point x="570" y="664"/>
      <point x="575" y="618"/>
      <point x="562" y="556" type="curve"/>
      <point x="563" y="558"/>
      <point x="526" y="388"/>
    </contour>
    <contour>
      <point x="426" y="535" type="line"/>
      <point x="404" y="545"/>
      <point x="370" y="557"/>
      <point x="339" y="557" type="curve" smooth="yes"/>
      <point x="300" y="557"/>
      <point x="279" y="535"/>
      <point x="273" y="509" type="curve"/>
      <point x="266" y="467"/>
      <point x="311" y="460"/>
      <point x="356" y="460" type="curve" smooth="yes"/>
      <point x="379" y="460"/>
      <point x="394" y="462"/>
      <point x="410" y="462" type="curve"/>
    </contour>
  </outline>
</glyph>
<glyph name="degree" format="2">
  <advance width="351"/>
  <unicode hex="00B0"/>
  <outline>
    <contour>
      <point x="441" y="566" type="curve" smooth="yes"/>
      <point x="424" y="486"/>
      <point x="345" y="420"/>
      <point x="264" y="420" type="curve" smooth="yes"/>
      <point x="183" y="420"/>
      <point x="131" y="486"/>
      <point x="148" y="566" type="curve" smooth="yes"/>
      <point x="166" y="648"/>
      <point x="245" y="712"/>
      <point x="326" y="712" type="curve" smooth="yes"/>
      <point x="407" y="712"/>
      <point x="459" y="648"/>
    </contour>
    <contour>
      <point x="307" y="619" type="curve" smooth="yes"/>
      <point x="278" y="619"/>
      <point x="250" y="596"/>
      <point x="243" y="566" type="curve" smooth="yes"/>
      <point x="237" y="537"/>
      <point x="255" y="514"/>
      <point x="284" y="514" type="curve" smooth="yes"/>
      <point x="311" y="514"/>
      <point x="342" y="537"/>
      <point x="348" y="566" type="curve" smooth="yes"/>
      <point x="355" y="596"/>
      <point x="334" y="619"/>
    </contour>
  </outline>
</glyph>
<glyph name="multiply" format="1">
  <advance width="566" height="962"/>
  <unicode hex="00D7"/>
  <outline>
    <contour>
      <point x="368" y="405" type="line"/>
      <point x="519" y="510" type="line"/>
      <point x="615" y="452" type="line"/>
      <point x="443" y="333" type="line"/>
      <point x="565" y="219" type="line"/>
      <point x="447" y="158" type="line"/>
      <point x="337" y="261" type="line"/>
      <point x="186" y="157" type="line"/>
      <point x="97" y="219" type="line"/>
      <point x="265" y="333" type="line"/>
      <point x="140" y="449" type="line"/>
      <point x="261" y="509" type="line"/>
    </contour>
  </outline>
</glyph>
<glyph name="germandbls" format="1">
  <advance width="827" height="962"/>
  <unicode hex="00DF"/>
  <outline>
    <contour>
      <point x="221" y="0" type="line"/>
      <point x="41" y="0" type="line"/>
      <point x="149" y="510" type="line" smooth="yes"/>
      <point x="174" y="626"/>
      <point x="310" y="707"/>
      <point x="491" y="707" type="curve" smooth="yes"/>
      <point x="673" y="707"/>
      <point x="724" y="667"/>
      <point x="764" y="617" type="curve" smooth="yes"/>
      <point x="786" y="590"/>
      <point x="796" y="504"/>
      <point x="736" y="453" type="curve"/>
      <point x="736" y="453"/>
      <point x="637" y="453"/>
      <point x="637" y="453" type="curve"/>
      <point x="628" y="445"/>
      <point x="620" y="438"/>
      <point x="616" y="419" type="curve" smooth="yes"/>
      <point x="599" y="341"/>
      <point x="874" y="329"/>
      <point x="838" y="160" type="curve" smooth="yes"/>
      <point x="814" y="47"/>
      <point x="663" y="-15"/>
      <point x="540" y="-15" type="curve" smooth="yes"/>
      <point x="435" y="-15"/>
      <point x="346" y="5"/>
      <point x="301" y="39" type="curve"/>
      <point x="388" y="175" type="line"/>
      <point x="422" y="156"/>
      <point x="523" y="147"/>
      <point x="551" y="147" type="curve" smooth="yes"/>
      <point x="610" y="147"/>
      <point x="632" y="152"/>
      <point x="635" y="167" type="curve" smooth="yes"/>
      <point x="642" y="199"/>
      <point x="403" y="238"/>
      <point x="434" y="387" type="curve" smooth="yes"/>
      <point x="444" y="433"/>
      <point x="458" y="455"/>
      <point x="475" y="475" type="curve"/>
      <point x="566" y="475"/>
      <point x="591" y="494"/>
      <point x="595" y="511" type="curve" smooth="yes"/>
      <point x="598" y="527"/>
      <point x="546" y="541"/>
      <point x="476" y="541" type="curve" smooth="yes"/>
      <point x="384" y="541"/>
      <point x="333" y="529"/>
      <point x="322" y="475" type="curve" smooth="yes"/>
    </contour>
  </outline>
</glyph>
<glyph name="eth" format="2">
  <advance width="636"/>
  <unicode hex="00F0"/>
  <outline>
    <contour>
      <point x="587" y="662" type="curve"/>
      <point x="672" y="711" type="line"/>
      <point x="701" y="654" type="line"/>
      <point x="652" y="625" type="line"/>
      <point x="698" y="597"/>
      <point x="720" y="528"/>
      <point x="710" y="481" type="curve" smooth="yes"/>
      <point x="648" y="190" type="line" smooth="yes"/>
      <point x="617" y="43"/>
      <point x="502" y="-9"/>
      <point x="309" y="-9" type="curve" smooth="yes"/>
      <point x="127" y="-9"/>
      <point x="37" y="45"/>
      <point x="67" y="187" type="curve" smooth="yes"/>
      <point x="79" y="246" type="line" smooth="yes"/>
      <point x="110" y="389"/>
      <point x="200" y="438"/>
      <point x="333" y="438" type="curve" smooth="yes"/>
      <point x="403" y="438"/>
      <point x="467" y="435"/>
      <point x="518" y="428" type="curve"/>
      <point x="529" y="481" type="line" smooth="yes"/>
      <point x="534" y="504"/>
      <point x="521" y="522"/>
      <point x="501" y="537" type="curve"/>
      <point x="396" y="475" type="line"/>
      <point x="365" y="532" type="line"/>
      <point x="429" y="569" type="line"/>
      <point x="385" y="583"/>
      <point x="343" y="589"/>
      <point x="344" y="589" type="curve"/>
      <point x="413" y="702" type="line"/>
      <point x="475" y="693"/>
      <point x="536" y="682"/>
    </contour>
    <contour>
      <point x="353" y="158" type="curve" smooth="yes"/>
      <point x="422" y="158"/>
      <point x="463" y="163"/>
      <point x="470" y="197" type="curve" smooth="yes"/>
      <point x="482" y="256" type="line" smooth="yes"/>
      <point x="489" y="289"/>
      <point x="450" y="291"/>
      <point x="381" y="291" type="curve" smooth="yes"/>
      <point x="318" y="291"/>
      <point x="269" y="288"/>
      <point x="262" y="256" type="curve" smooth="yes"/>
      <point x="250" y="197" type="line" smooth="yes"/>
      <point x="243" y="163"/>
      <point x="279" y="158"/>
    </contour>
  </outline>
</glyph>
<glyph name="thorn" format="1">
  <advance width="657" height="962"/>
  <unicode hex="00FE"/>
  <outline>
    <contour>
      <point x="659" y="177" type="line" smooth="yes"/>
      <point x="632" y="54"/>
      <point x="535" y="-12"/>
      <point x="417" y="-12" type="curve" smooth="yes"/>
      <point x="337" y="-12"/>
      <point x="276" y="-5"/>
      <point x="222" y="6" type="curve"/>
      <point x="176" y="-214" type="line"/>
      <point x="-1" y="-192" type="line"/>
      <point x="189" y="700" type="line"/>
      <point x="370" y="700" type="line"/>
      <point x="323" y="479" type="line"/>
      <point x="370" y="494"/>
      <point x="461" y="511"/>
      <point x="554" y="511" type="curve" smooth="yes"/>
      <point x="685" y="511"/>
      <point x="716" y="448"/>
      <point x="695" y="346" type="curve" smooth="yes"/>
    </contour>
    <contour>
      <point x="504" y="298" type="line" smooth="yes"/>
      <point x="511" y="331"/>
      <point x="474" y="337"/>
      <point x="426" y="337" type="curve" smooth="yes"/>
      <point x="372" y="337"/>
      <point x="286" y="328"/>
      <point x="291" y="328" type="curve"/>
      <point x="263" y="198" type="line" smooth="yes"/>
      <point x="257" y="169"/>
      <point x="330" y="161"/>
      <point x="398" y="161" type="curve" smooth="yes"/>
      <point x="442" y="161"/>
      <point x="478" y="176"/>
      <point x="485" y="206" type="curve" smooth="yes"/>
    </contour>
  </outline>
</glyph>
<glyph name="lslash" format="2">
  <advance width="464"/>
  <unicode hex="0142"/>
  <outline>
    <component base="l" xOffset="97.5"/>
    <contour>
      <point x="511" y="490" type="line"/>
      <point x="522" y="386" type="line"/>
      <point x="109" y="252" type="line"/>
      <point x="96" y="357" type="line"/>
    </contour>
  </outline>
</glyph>
<glyph name="Eng" format="1">
  <advance width="825" height="962"/>
  <unicode hex="014A"/>
  <outline>
    <contour>
      <point x="782" y="-7" type="line" smooth="yes"/>
      <point x="750" y="-156"/>
      <point x="668" y="-214"/>
      <point x="479" y="-214" type="curve"/>
      <point x="479" y="-76" type="line"/>
      <point x="543" y="-78"/>
      <point x="591" y="-55"/>
      <point x="600" y="-14" type="curve" smooth="yes"/>
      <point x="603" y="0" type="line"/>
      <point x="315" y="436" type="line"/>
      <point x="222" y="0" type="line"/>
      <point x="41" y="0" type="line"/>
      <point x="190" y="700" type="line"/>
      <point x="371" y="700" type="line"/>
      <point x="659" y="253" type="line"/>
      <point x="753" y="700" type="line"/>
      <point x="932" y="700" type="line"/>
    </contour>
  </outline>
</glyph>
<glyph name="dotlessj" format="1">
  <advance width="352" height="962"/>
  <unicode hex="0237"/>
  <outline>
    <contour>
      <point x="308" y="-21" type="line" smooth="yes"/>
      <point x="284" y="-134"/>
      <point x="178" y="-216"/>
      <point x="21" y="-216" type="curve"/>
      <point x="3" y="-90" type="line"/>
      <point x="67" y="-87"/>
      <point x="119" y="-63"/>
      <point x="129" y="-14" type="curve" smooth="yes"/>
      <point x="207" y="353" type="line"/>
      <point x="105" y="361" type="line"/>
      <point x="134" y="501" type="line"/>
      <point x="418" y="501" type="line"/>
    </contour>
  </outline>
</glyph>
<glyph name="macroncomb" format="1">
  <advance width="267" height="962"/>
  <unicode hex="0304"/>
  <outline>
    <contour>
      <point x="402" y="744" type="line"/>
      <point x="376" y="620" type="line"/>
      <point x="154" y="620" type="line"/>
      <point x="180" y="744" type="line"/>
    </contour>
  </outline>
</glyph>
<glyph name="cedillacomb" format="2">
  <advance width="267" height="962"/>
  <unicode hex="0327"/>
  <outline>
    <contour>
      <point x="173" y="0" type="line"/>
      <point x="149" y="-31" type="line"/>
      <point x="157" y="-30"/>
      <point x="167" y="-30"/>
      <point x="171" y="-30" type="curve" smooth="yes"/>
      <point x="236" y="-30"/>
      <point x="263" y="-77"/>
      <point x="252" y="-129" type="curve" smooth="yes"/>
      <point x="238" y="-193"/>
      <point x="186" y="-232"/>
      <point x="104" y="-232" type="curve" smooth="yes"/>
      <point x="54" y="-232"/>
      <point x="5" y="-223"/>
      <point x="-4" y="-219" type="curve"/>
      <point x="30" y="-137" type="line"/>
      <point x="31" y="-137"/>
      <point x="88" y="-142"/>
      <point x="138" y="-141" type="curve"/>
      <point x="151" y="-141"/>
      <point x="157" y="-138"/>
      <point x="158" y="-130" type="curve" smooth="yes"/>
      <point x="160" y="-121"/>
      <point x="156" y="-118"/>
      <point x="144" y="-118" type="curve" smooth="yes"/>
      <point x="135" y="-118"/>
      <point x="70" y="-121"/>
      <point x="50" y="-122" type="curve"/>
      <point x="49" y="-50" type="line"/>
      <point x="87" y="0" type="line"/>
    </contour>
  </outline>
</glyph>
<glyph name="Deltagreek" format="1">
  <advance width="785" height="962"/>
  <unicode hex="0394"/>
  <outline>
    <contour>
      <point x="764" y="0" type="line"/>
      <point x="22" y="0" type="line"/>
      <point x="404" y="700" type="line"/>
      <point x="678" y="700" type="line"/>
    </contour>
    <contour>
      <point x="284" y="139" type="line"/>
      <point x="564" y="139" type="line"/>
      <point x="514" y="562" type="line"/>
    </contour>
  </outline>
</glyph>
<glyph name="Theta" format="2">
  <advance width="701"/>
  <unicode hex="0398"/>
  <outline>
    <component base="O" xOffset="-1"/>
    <contour>
      <point x="228" y="430" type="line"/>
      <point x="653" y="430" type="line"/>
      <point x="620" y="274" type="line"/>
      <point x="195" y="274" type="line"/>
    </contour>
  </outline>
  <guideline angle="0" x="0" y="340"/>
</glyph>
<glyph name="Upsilon" format="2">
  <advance width="737"/>
  <unicode hex="03A5"/>
  <outline>
    <contour>
      <point x="729" y="157" type="line" smooth="yes"/>
      <point x="707" y="51"/>
      <point x="614" y="-8"/>
      <point x="419" y="-19" type="curve"/>
      <point x="397" y="120" type="line"/>
      <point x="448" y="121"/>
      <point x="554" y="129"/>
      <point x="564" y="176" type="curve" smooth="yes"/>
      <point x="579" y="244" type="line"/>
      <point x="536" y="217"/>
      <point x="432" y="203"/>
      <point x="360" y="203" type="curve" smooth="yes"/>
      <point x="196" y="203"/>
      <point x="88" y="273"/>
      <point x="116" y="405" type="curve" smooth="yes"/>
      <point x="179" y="700" type="line"/>
      <point x="362" y="700" type="line"/>
      <point x="307" y="441" type="line" smooth="yes"/>
      <point x="296" y="391"/>
      <point x="323" y="369"/>
      <point x="437" y="369" type="curve" smooth="yes"/>
      <point x="519" y="369"/>
      <point x="598" y="390"/>
      <point x="606" y="429" type="curve" smooth="yes"/>
      <point x="664" y="700" type="line"/>
      <point x="845" y="700" type="line"/>
    </contour>
  </outline>
</glyph>
<glyph name="Chi" format="2">
  <advance width="910"/>
  <unicode hex="03A7"/>
  <outline>
    <contour>
      <point x="541.666" y="480.475" type="line"/>
      <point x="782" y="700" type="line"/>
      <point x="1016" y="700" type="line"/>
      <point x="636.926" y="351.048" type="line"/>
      <point x="888" y="0" type="line"/>
      <point x="685" y="0" type="line"/>
      <point x="516.314" y="240.695" type="line"/>
      <point x="252" y="0" type="line"/>
      <point x="19" y="0" type="line"/>
      <point x="422.905" y="371.65" type="line"/>
      <point x="186" y="700" type="line"/>
      <point x="387" y="700" type="line"/>
    </contour>
  </outline>
  <guideline angle="121.5" x="468.457" y="0"/>
  <guideline angle="58.5" x="163.249" y="0"/>
  <guideline angle="58.5" x="26.5" y="0"/>
  <guideline angle="121.5" x="602.756" y="1"/>
</glyph>
<glyph name="Psi" format="2">
  <advance width="941"/>
  <unicode hex="03A8"/>
  <outline>
    <contour>
      <point x="292" y="388" type="line" smooth="yes"/>
      <point x="283" y="343"/>
      <point x="302" y="332"/>
      <point x="333" y="332" type="curve" smooth="yes"/>
      <point x="451" y="332" type="line"/>
      <point x="529" y="700" type="line"/>
      <point x="712" y="700" type="line"/>
      <point x="634" y="332" type="line"/>
      <point x="751" y="332" type="line" smooth="yes"/>
      <point x="786" y="332"/>
      <point x="806" y="351"/>
      <point x="814" y="391" type="curve" smooth="yes"/>
      <point x="851" y="565" type="line" smooth="yes"/>
      <point x="866" y="637"/>
      <point x="847" y="678"/>
      <point x="846" y="680" type="curve"/>
      <point x="1013" y="711" type="line"/>
      <point x="1030" y="689"/>
      <point x="1049" y="651"/>
      <point x="1028" y="550" type="curve" smooth="yes"/>
      <point x="995" y="393" type="line" smooth="yes"/>
      <point x="969" y="272"/>
      <point x="891" y="183"/>
      <point x="697" y="183" type="curve" smooth="yes"/>
      <point x="602" y="183" type="line"/>
      <point x="563" y="0" type="line"/>
      <point x="380" y="0" type="line"/>
      <point x="419" y="183" type="line"/>
      <point x="316" y="183" type="line" smooth="yes"/>
      <point x="147" y="183"/>
      <point x="88" y="272"/>
      <point x="114" y="393" type="curve" smooth="yes"/>
      <point x="179" y="700" type="line"/>
      <point x="359" y="700" type="line"/>
    </contour>
  </outline>
</glyph>
<glyph name="Omegagreek" format="2">
  <advance width="826" height="962"/>
  <unicode hex="03A9"/>
  <outline>
    <contour>
      <point x="843" y="286" type="line" smooth="yes"/>
      <point x="827" y="211"/>
      <point x="805" y="179"/>
      <point x="738" y="161" type="curve"/>
      <point x="811" y="161" type="line"/>
      <point x="801" y="0" type="line"/>
      <point x="455" y="0" type="line"/>
      <point x="489" y="160" type="line"/>
      <point x="583" y="160"/>
      <point x="643" y="190"/>
      <point x="656" y="250" type="curve" smooth="yes"/>
      <point x="707" y="490" type="line" smooth="yes"/>
      <point x="716" y="533"/>
      <point x="704" y="553"/>
      <point x="661" y="553" type="curve" smooth="yes"/>
      <point x="402" y="553" type="line" smooth="yes"/>
      <point x="359" y="553"/>
      <point x="339" y="533"/>
      <point x="330" y="490" type="curve" smooth="yes"/>
      <point x="279" y="249" type="line" smooth="yes"/>
      <point x="266" y="188"/>
      <point x="309" y="160"/>
      <point x="403" y="160" type="curve"/>
      <point x="369" y="0" type="line"/>
      <point x="27" y="0" type="line"/>
      <point x="88" y="161" type="line"/>
      <point x="160" y="161" type="line"/>
      <point x="93" y="173"/>
      <point x="100" y="245"/>
      <point x="109" y="286" type="curve" smooth="yes"/>
      <point x="156" y="509" type="line" smooth="yes"/>
      <point x="182" y="631"/>
      <point x="283" y="707"/>
      <point x="472" y="707" type="curve" smooth="yes"/>
      <point x="660" y="707" type="line" smooth="yes"/>
      <point x="847" y="707"/>
      <point x="916" y="631"/>
      <point x="890" y="509" type="curve" smooth="yes"/>
    </contour>
  </outline>
</glyph>
<glyph name="iotatonos" format="2">
  <advance width="258" height="962"/>
  <unicode hex="03AF"/>
  <outline>
    <component base="dotlessi"/>
    <contour>
      <point x="356" y="620" type="curve" smooth="yes"/>
      <point x="290" y="553" type="line"/>
      <point x="201" y="553" type="line"/>
      <point x="257" y="670" type="line" smooth="yes"/>
      <point x="273" y="705"/>
      <point x="325" y="740"/>
      <point x="364" y="717" type="curve" smooth="yes"/>
      <point x="401" y="696"/>
      <point x="383" y="647"/>
    </contour>
  </outline>
</glyph>
<glyph name="alpha" format="2">
  <advance width="653"/>
  <unicode hex="03B1"/>
  <outline>
    <contour>
      <point x="724" y="487" type="line"/>
      <point x="709" y="445"/>
      <point x="699" y="412"/>
      <point x="694" y="390" type="curve" smooth="yes"/>
      <point x="612" y="5" type="line"/>
      <point x="613" y="5"/>
      <point x="391" y="-4"/>
      <point x="277" y="-4" type="curve" smooth="yes"/>
      <point x="91" y="-4"/>
      <point x="48" y="77"/>
      <point x="68" y="170" type="curve" smooth="yes"/>
      <point x="107" y="355" type="line" smooth="yes"/>
      <point x="132" y="471"/>
      <point x="240" y="510"/>
      <point x="344" y="510" type="curve" smooth="yes"/>
      <point x="452" y="510"/>
      <point x="526" y="496"/>
      <point x="541" y="493" type="curve"/>
      <point x="541" y="493"/>
      <point x="547" y="505"/>
      <point x="556" y="515" type="curve"/>
    </contour>
    <contour>
      <point x="256" y="203" type="line" smooth="yes"/>
      <point x="248" y="164"/>
      <point x="298" y="160"/>
      <point x="354" y="160" type="curve" smooth="yes"/>
      <point x="388" y="160"/>
      <point x="433" y="160"/>
      <point x="466" y="161" type="curve"/>
      <point x="504" y="340" type="line"/>
      <point x="472" y="342"/>
      <point x="421" y="344"/>
      <point x="393" y="344" type="curve" smooth="yes"/>
      <point x="359" y="344"/>
      <point x="287" y="348"/>
      <point x="279" y="309" type="curve" smooth="yes"/>
    </contour>
  </outline>
</glyph>
<glyph name="gamma" format="2">
  <advance width="750" height="962"/>
  <unicode hex="03B3"/>
  <outline>
    <contour>
      <point x="808" y="409" type="line"/>
      <point x="751" y="393"/>
      <point x="717" y="381"/>
      <point x="687" y="314" type="curve" smooth="yes"/>
      <point x="540" y="-11" type="line" smooth="yes"/>
      <point x="485" y="-130"/>
      <point x="389" y="-223"/>
      <point x="127" y="-203" type="curve"/>
      <point x="115" y="-31" type="line"/>
      <point x="186" y="-31"/>
      <point x="320" y="-42"/>
      <point x="336" y="-7" type="curve" smooth="yes"/>
      <point x="347" y="19" type="line"/>
      <point x="234" y="27"/>
      <point x="159" y="70"/>
      <point x="150" y="198" type="curve" smooth="yes"/>
      <point x="129" y="501" type="line"/>
      <point x="324" y="501" type="line"/>
      <point x="334" y="237" type="line" smooth="yes"/>
      <point x="337" y="167"/>
      <point x="427" y="182"/>
      <point x="427" y="182" type="curve"/>
      <point x="511" y="357" type="line" smooth="yes"/>
      <point x="564" y="468"/>
      <point x="619" y="526"/>
      <point x="768" y="531" type="curve"/>
    </contour>
  </outline>
</glyph>
<glyph name="zeta" format="2">
  <advance width="655"/>
  <unicode hex="03B6"/>
  <anchor x="391" y="777" name="top"/>
  <outline>
    <contour>
      <point x="718" y="523" type="line"/>
      <point x="643" y="498"/>
      <point x="511" y="428"/>
      <point x="451" y="390" type="curve" smooth="yes"/>
      <point x="373" y="341"/>
      <point x="278" y="277"/>
      <point x="265" y="217" type="curve" smooth="yes"/>
      <point x="261" y="198"/>
      <point x="269" y="182"/>
      <point x="294" y="172" type="curve" smooth="yes"/>
      <point x="348" y="150"/>
      <point x="470" y="160"/>
      <point x="641" y="160" type="curve"/>
      <point x="561" y="-216" type="line"/>
      <point x="385" y="-191" type="line"/>
      <point x="425" y="-6" type="line"/>
      <point x="281" y="-6"/>
      <point x="177" y="5"/>
      <point x="118" y="50" type="curve" smooth="yes"/>
      <point x="73" y="84"/>
      <point x="56" y="139"/>
      <point x="67" y="195" type="curve" smooth="yes"/>
      <point x="81" y="260"/>
      <point x="106" y="316"/>
      <point x="211" y="403" type="curve" smooth="yes"/>
      <point x="246" y="432"/>
      <point x="334" y="494"/>
      <point x="391" y="522" type="curve"/>
      <point x="242" y="522" type="line"/>
      <point x="280" y="702" type="line"/>
      <point x="691" y="702" type="line"/>
    </contour>
  </outline>
</glyph>
<glyph name="eta" format="2">
  <advance width="654"/>
  <unicode hex="03B7"/>
  <outline>
    <contour>
      <point x="502" y="297" type="line" smooth="yes"/>
      <point x="509" y="328"/>
      <point x="481" y="341"/>
      <point x="441" y="341" type="curve" smooth="yes"/>
      <point x="393" y="341"/>
      <point x="336" y="333"/>
      <point x="287" y="326" type="curve"/>
      <point x="218" y="0" type="line"/>
      <point x="38" y="0" type="line"/>
      <point x="144" y="501" type="line"/>
      <point x="324" y="501" type="line"/>
      <point x="320" y="478" type="line"/>
      <point x="383" y="497"/>
      <point x="457" y="511"/>
      <point x="522" y="511" type="curve" smooth="yes"/>
      <point x="627" y="511"/>
      <point x="717" y="465"/>
      <point x="689" y="336" type="curve" smooth="yes"/>
      <point x="572" y="-215" type="line"/>
      <point x="398" y="-191" type="line"/>
    </contour>
  </outline>
</glyph>
<glyph name="theta" format="2">
  <advance width="653"/>
  <unicode hex="03B8"/>
  <outline>
    <contour>
      <point x="469" y="710" type="curve" smooth="yes"/>
      <point x="667" y="710"/>
      <point x="751" y="633"/>
      <point x="724" y="506" type="curve" smooth="yes"/>
      <point x="656" y="190" type="line" smooth="yes"/>
      <point x="629" y="63"/>
      <point x="520" y="-12"/>
      <point x="324" y="-12" type="curve" smooth="yes"/>
      <point x="130" y="-12"/>
      <point x="48" y="65"/>
      <point x="74" y="190" type="curve" smooth="yes"/>
      <point x="95" y="288" type="line" smooth="yes"/>
      <point x="112" y="366"/>
      <point x="152" y="391"/>
      <point x="193" y="412" type="curve"/>
      <point x="158" y="457"/>
      <point x="155" y="487"/>
      <point x="166" y="543" type="curve" smooth="yes"/>
      <point x="188" y="644"/>
      <point x="311" y="710"/>
    </contour>
    <contour>
      <point x="544" y="508" type="line" smooth="yes"/>
      <point x="548" y="528"/>
      <point x="515" y="540"/>
      <point x="442" y="540" type="curve" smooth="yes"/>
      <point x="374" y="540"/>
      <point x="349" y="531"/>
      <point x="346" y="517" type="curve" smooth="yes"/>
      <point x="344" y="506"/>
      <point x="352" y="497"/>
      <point x="395" y="483" type="curve" smooth="yes"/>
      <point x="419" y="475"/>
      <point x="471" y="467"/>
      <point x="535" y="464" type="curve"/>
    </contour>
    <contour>
      <point x="358" y="160" type="curve" smooth="yes"/>
      <point x="436" y="160"/>
      <point x="475" y="182"/>
      <point x="481" y="214" type="curve" smooth="yes"/>
      <point x="501" y="304" type="line"/>
      <point x="449" y="305"/>
      <point x="365" y="310"/>
      <point x="312" y="334" type="curve"/>
      <point x="293" y="326"/>
      <point x="280" y="312"/>
      <point x="275" y="289" type="curve" smooth="yes"/>
      <point x="259" y="214" type="line" smooth="yes"/>
      <point x="253" y="182"/>
      <point x="280" y="160"/>
    </contour>
  </outline>
  <guideline angle="0" x="0" y="816"/>
</glyph>
<glyph name="xi" format="2">
  <advance width="657" height="962"/>
  <unicode hex="03BE"/>
  <outline>
    <contour>
      <point x="676" y="522" type="line"/>
      <point x="447" y="522" type="line" smooth="yes"/>
      <point x="424" y="522"/>
      <point x="413" y="515"/>
      <point x="410" y="500" type="curve" smooth="yes"/>
      <point x="406" y="480"/>
      <point x="425" y="454"/>
      <point x="494" y="453" type="curve" smooth="yes"/>
      <point x="684" y="450" type="line"/>
      <point x="597" y="271" type="line"/>
      <point x="327" y="271" type="line" smooth="yes"/>
      <point x="293" y="271"/>
      <point x="268" y="267"/>
      <point x="261" y="235" type="curve" smooth="yes"/>
      <point x="255" y="205" type="line" smooth="yes"/>
      <point x="249" y="180"/>
      <point x="273" y="169"/>
      <point x="318" y="169" type="curve" smooth="yes"/>
      <point x="396" y="169"/>
      <point x="567" y="170"/>
      <point x="645" y="170" type="curve"/>
      <point x="563" y="-217" type="line"/>
      <point x="387" y="-192" type="line"/>
      <point x="427" y="-7" type="line"/>
      <point x="350" y="-9"/>
      <point x="290" y="-10"/>
      <point x="230" y="-10" type="curve" smooth="yes"/>
      <point x="137" y="-10"/>
      <point x="36" y="29"/>
      <point x="63" y="156" type="curve" smooth="yes"/>
      <point x="87" y="266" type="line" smooth="yes"/>
      <point x="108" y="368"/>
      <point x="184" y="415"/>
      <point x="265" y="415" type="curve" smooth="yes"/>
      <point x="283" y="415" type="line"/>
      <point x="226" y="451"/>
      <point x="223" y="507"/>
      <point x="231" y="546" type="curve" smooth="yes"/>
      <point x="254" y="652"/>
      <point x="348" y="702"/>
      <point x="468" y="702" type="curve" smooth="yes"/>
      <point x="760" y="702" type="line"/>
    </contour>
  </outline>
</glyph>
<glyph name="sigma" format="1">
  <advance width="718" height="962"/>
  <unicode hex="03C3"/>
  <outline>
    <contour>
      <point x="804" y="410" type="line"/>
      <point x="752" y="367"/>
      <point x="692" y="350"/>
      <point x="643" y="345" type="curve"/>
      <point x="666" y="323"/>
      <point x="673" y="289"/>
      <point x="665" y="247" type="curve" smooth="yes"/>
      <point x="651" y="185" type="line" smooth="yes"/>
      <point x="625" y="59"/>
      <point x="513" y="-10"/>
      <point x="322" y="-10" type="curve" smooth="yes"/>
      <point x="115" y="-10"/>
      <point x="43" y="63"/>
      <point x="69" y="185" type="curve" smooth="yes"/>
      <point x="98" y="321" type="line" smooth="yes"/>
      <point x="130" y="471"/>
      <point x="277" y="512"/>
      <point x="430" y="512" type="curve" smooth="yes"/>
      <point x="495" y="512"/>
      <point x="554" y="503"/>
      <point x="619" y="504" type="curve" smooth="yes"/>
      <point x="670" y="505"/>
      <point x="727" y="522"/>
      <point x="765" y="544" type="curve"/>
    </contour>
    <contour>
      <point x="497" y="305" type="line" smooth="yes"/>
      <point x="498" y="312"/>
      <point x="498" y="328"/>
      <point x="470" y="336" type="curve"/>
      <point x="454" y="338"/>
      <point x="406" y="338"/>
      <point x="390" y="338" type="curve" smooth="yes"/>
      <point x="325" y="338"/>
      <point x="279" y="334"/>
      <point x="272" y="302" type="curve" smooth="yes"/>
      <point x="251" y="203" type="line" smooth="yes"/>
      <point x="245" y="174"/>
      <point x="274" y="161"/>
      <point x="355" y="161" type="curve" smooth="yes"/>
      <point x="436" y="161"/>
      <point x="469" y="174"/>
      <point x="475" y="203" type="curve" smooth="yes"/>
    </contour>
  </outline>
</glyph>
<glyph name="phi" format="2">
  <advance width="947"/>
  <unicode hex="03C6"/>
  <outline>
    <contour>
      <point x="102" y="314" type="line" smooth="yes"/>
      <point x="124" y="417"/>
      <point x="189" y="476"/>
      <point x="279" y="504" type="curve"/>
      <point x="342" y="388" type="line"/>
      <point x="307" y="373"/>
      <point x="291" y="355"/>
      <point x="284" y="322" type="curve" smooth="yes"/>
      <point x="261" y="210" type="line" smooth="yes"/>
      <point x="254" y="178"/>
      <point x="276" y="167"/>
      <point x="298" y="167" type="curve" smooth="yes"/>
      <point x="423" y="167" type="line"/>
      <point x="462" y="348" type="line" smooth="yes"/>
      <point x="483" y="448"/>
      <point x="597" y="508"/>
      <point x="730" y="508" type="curve" smooth="yes"/>
      <point x="919" y="508"/>
      <point x="1003" y="433"/>
      <point x="976" y="308" type="curve" smooth="yes"/>
      <point x="951" y="190" type="line" smooth="yes"/>
      <point x="925" y="68"/>
      <point x="834" y="-7"/>
      <point x="664" y="-7" type="curve" smooth="yes"/>
      <point x="568" y="-7" type="line"/>
      <point x="523" y="-217" type="line"/>
      <point x="347" y="-192" type="line"/>
      <point x="387" y="-7" type="line"/>
      <point x="280" y="-7" type="line" smooth="yes"/>
      <point x="120" y="-7"/>
      <point x="49" y="68"/>
      <point x="75" y="190" type="curve" smooth="yes"/>
    </contour>
    <contour>
      <point x="714" y="167" type="line" smooth="yes"/>
      <point x="746" y="167"/>
      <point x="769" y="178"/>
      <point x="776" y="212" type="curve" smooth="yes"/>
      <point x="793" y="290" type="line" smooth="yes"/>
      <point x="799" y="320"/>
      <point x="763" y="334"/>
      <point x="724" y="334" type="curve" smooth="yes"/>
      <point x="705" y="334"/>
      <point x="641" y="339"/>
      <point x="633" y="303" type="curve" smooth="yes"/>
      <point x="604" y="167" type="line"/>
    </contour>
  </outline>
</glyph>
<glyph name="psi" format="2">
  <advance width="947"/>
  <unicode hex="03C8"/>
  <outline>
    <contour>
      <point x="991" y="507" type="line"/>
      <point x="1008" y="475"/>
      <point x="1004" y="440"/>
      <point x="992" y="388" type="curve" smooth="yes"/>
      <point x="950" y="190" type="line" smooth="yes"/>
      <point x="924" y="68"/>
      <point x="834" y="-7"/>
      <point x="670" y="-7" type="curve" smooth="yes"/>
      <point x="565" y="-7" type="line"/>
      <point x="520" y="-217" type="line"/>
      <point x="345" y="-191" type="line"/>
      <point x="385" y="-7" type="line"/>
      <point x="274" y="-7" type="line" smooth="yes"/>
      <point x="115" y="-7"/>
      <point x="50" y="68"/>
      <point x="76" y="190" type="curve" smooth="yes"/>
      <point x="142" y="501" type="line"/>
      <point x="322" y="501" type="line"/>
      <point x="263" y="222" type="line" smooth="yes"/>
      <point x="256" y="187"/>
      <point x="268" y="169"/>
      <point x="313" y="169" type="curve" smooth="yes"/>
      <point x="422" y="169" type="line"/>
      <point x="492" y="501" type="line"/>
      <point x="672" y="501" type="line"/>
      <point x="602" y="169" type="line"/>
      <point x="695" y="169" type="line" smooth="yes"/>
      <point x="743" y="169"/>
      <point x="768" y="185"/>
      <point x="776" y="222" type="curve" smooth="yes"/>
      <point x="811" y="388" type="line" smooth="yes"/>
      <point x="821" y="435"/>
      <point x="822" y="455"/>
      <point x="809" y="479" type="curve"/>
    </contour>
  </outline>
</glyph>
<glyph name="uni0402" format="2">
  <advance width="853"/>
  <unicode hex="0402"/>
  <outline>
    <component base="T" xOffset="10.5"/>
    <contour>
      <point x="705" y="510" type="curve" smooth="yes"/>
      <point x="823" y="510"/>
      <point x="923" y="474"/>
      <point x="895" y="345" type="curve" smooth="yes"/>
      <point x="850" y="131" type="line" smooth="yes"/>
      <point x="830" y="37"/>
      <point x="743" y="-12"/>
      <point x="590" y="-14" type="curve"/>
      <point x="584" y="139" type="line"/>
      <point x="635" y="139"/>
      <point x="672" y="146"/>
      <point x="678" y="174" type="curve" smooth="yes"/>
      <point x="703" y="294" type="line" smooth="yes"/>
      <point x="711" y="327"/>
      <point x="703" y="350"/>
      <point x="613" y="350" type="curve" smooth="yes"/>
      <point x="586" y="350"/>
      <point x="514" y="347"/>
      <point x="485" y="344" type="curve"/>
      <point x="515" y="485" type="line"/>
      <point x="561" y="501"/>
      <point x="637" y="510"/>
    </contour>
  </outline>
</glyph>
<glyph name="uni040A" format="1">
  <advance width="1211" height="962"/>
  <unicode hex="040A"/>
  <outline>
    <contour>
      <point x="1075" y="436" type="line" smooth="yes"/>
      <point x="1184" y="436"/>
      <point x="1264" y="392"/>
      <point x="1243" y="290" type="curve" smooth="yes"/>
      <point x="1214" y="157" type="line" smooth="yes"/>
      <point x="1187" y="28"/>
      <point x="1081" y="-11"/>
      <point x="910" y="-11" type="curve" smooth="yes"/>
      <point x="776" y="-11"/>
      <point x="500" y="0"/>
      <point x="495" y="0" type="curve"/>
      <point x="555" y="280" type="line"/>
      <point x="283" y="280" type="line"/>
      <point x="223" y="0" type="line"/>
      <point x="42" y="0" type="line"/>
      <point x="191" y="701" type="line"/>
      <point x="372" y="701" type="line"/>
      <point x="316" y="436" type="line"/>
      <point x="588" y="436" type="line"/>
      <point x="644" y="701" type="line"/>
      <point x="824" y="701" type="line"/>
      <point x="768" y="436" type="line"/>
    </contour>
    <contour>
      <point x="1043" y="193" type="curve" smooth="yes"/>
      <point x="1053" y="240" type="line" smooth="yes"/>
      <point x="1060" y="271"/>
      <point x="1040" y="279"/>
      <point x="1011" y="279" type="curve" smooth="yes"/>
      <point x="734" y="279" type="line"/>
      <point x="708" y="155" type="line"/>
      <point x="811" y="151"/>
      <point x="963" y="150"/>
      <point x="974" y="151" type="curve" smooth="yes"/>
      <point x="1017" y="155"/>
      <point x="1037" y="165"/>
    </contour>
  </outline>
</glyph>
<glyph name="uni0414" format="2">
  <advance width="947" height="962"/>
  <unicode hex="0414"/>
  <outline>
    <contour>
      <point x="873" y="160" type="line"/>
      <point x="966" y="160" type="line"/>
      <point x="909" y="-106" type="line"/>
      <point x="741" y="-106" type="line"/>
      <point x="752" y="-1" type="line"/>
      <point x="194" y="-1" type="line"/>
      <point x="160" y="-106" type="line"/>
      <point x="-9" y="-106" type="line"/>
      <point x="48" y="160" type="line"/>
      <point x="159" y="160" type="line"/>
      <point x="423" y="556" type="line"/>
      <point x="465" y="620"/>
      <point x="527" y="700"/>
      <point x="707" y="700" type="curve" smooth="yes"/>
      <point x="988" y="700" type="line"/>
    </contour>
    <contour>
      <point x="692" y="160" type="line"/>
      <point x="773" y="540" type="line"/>
      <point x="651" y="540" type="line" smooth="yes"/>
      <point x="603" y="540"/>
      <point x="586" y="510"/>
      <point x="553" y="460" type="curve" smooth="yes"/>
      <point x="356" y="160" type="line"/>
    </contour>
  </outline>
</glyph>
<glyph name="uni0418" format="1">
  <advance width="824" height="962"/>
  <unicode hex="0418"/>
  <outline>
    <contour>
      <point x="190" y="700" type="line"/>
      <point x="368" y="700" type="line"/>
      <point x="271" y="245" type="line"/>
      <point x="756" y="700" type="line"/>
      <point x="931" y="700" type="line"/>
      <point x="782" y="0" type="line"/>
      <point x="607" y="-1" type="line"/>
      <point x="701" y="443" type="line"/>
      <point x="231" y="0" type="line"/>
      <point x="41" y="0" type="line"/>
    </contour>
  </outline>
</glyph>
<glyph name="uni0426" format="2">
  <advance width="874" height="962"/>
  <unicode hex="0426"/>
  <outline>
    <contour>
      <point x="721" y="160" type="line"/>
      <point x="883" y="160" type="line"/>
      <point x="822" y="-125" type="line"/>
      <point x="655" y="-125" type="line"/>
      <point x="670" y="0" type="line"/>
      <point x="40" y="0" type="line"/>
      <point x="189" y="700" type="line"/>
      <point x="369" y="700" type="line"/>
      <point x="254" y="160" type="line"/>
      <point x="540" y="160" type="line"/>
      <point x="655" y="700" type="line"/>
      <point x="836" y="700" type="line"/>
    </contour>
  </outline>
</glyph>
<glyph name="uni0438" format="1">
  <advance width="684" height="962"/>
  <unicode hex="0438"/>
  <outline>
    <contour>
      <point x="326" y="500" type="line"/>
      <point x="273" y="248" type="line"/>
      <point x="571" y="500" type="line"/>
      <point x="752" y="500" type="line"/>
      <point x="646" y="-1" type="line"/>
      <point x="465" y="-1" type="line"/>
      <point x="518" y="249" type="line"/>
      <point x="220" y="-1" type="line"/>
      <point x="39" y="-1" type="line"/>
      <point x="145" y="500" type="line"/>
    </contour>
  </outline>
</glyph>
<glyph name="uni043C" format="1">
  <advance width="922" height="962"/>
  <unicode hex="043C"/>
  <outline>
    <contour>
      <point x="801" y="500" type="line"/>
      <point x="992" y="500" type="line"/>
      <point x="886" y="-1" type="line"/>
      <point x="706" y="-1" type="line"/>
      <point x="753" y="222" type="line"/>
      <point x="551" y="0" type="line"/>
      <point x="372" y="1" type="line"/>
      <point x="264" y="222" type="line"/>
      <point x="217" y="-1" type="line"/>
      <point x="36" y="-1" type="line"/>
      <point x="142" y="500" type="line"/>
      <point x="336" y="500" type="line"/>
      <point x="501" y="169" type="line"/>
    </contour>
  </outline>
</glyph>
<glyph name="uni0446" format="2">
  <advance width="726"/>
  <unicode hex="0446"/>
  <outline>
    <contour>
      <point x="719" y="500" type="line"/>
      <point x="646.92" y="160" type="line"/>
      <point x="745" y="160" type="line"/>
      <point x="684" y="-125" type="line"/>
      <point x="514" y="-125" type="line"/>
      <point x="529" y="0" type="line"/>
      <point x="37" y="0" type="line"/>
      <point x="143" y="500" type="line"/>
      <point x="323" y="500" type="line"/>
      <point x="251" y="160" type="line"/>
      <point x="468" y="160" type="line"/>
      <point x="540" y="500" type="line"/>
    </contour>
  </outline>
</glyph>
<glyph name="uni0448" format="2">
  <advance width="875"/>
  <unicode hex="0448"/>
  <outline>
    <contour>
      <point x="758" y="500" type="line"/>
      <point x="938" y="500" type="line"/>
      <point x="832" y="0" type="line"/>
      <point x="44" y="0" type="line"/>
      <point x="150" y="500" type="line"/>
      <point x="330" y="500" type="line"/>
      <point x="256" y="149" type="line"/>
      <point x="378" y="149" type="line"/>
      <point x="452" y="500" type="line"/>
      <point x="633" y="500" type="line"/>
      <point x="559" y="149" type="line"/>
      <point x="684" y="149" type="line"/>
    </contour>
  </outline>
</glyph>
<glyph name="uni044C" format="2">
  <advance width="652"/>
  <unicode hex="044C"/>
  <outline>
    <contour>
      <point x="443" y="360" type="line" smooth="yes"/>
      <point x="581" y="360"/>
      <point x="695" y="315"/>
      <point x="667" y="183" type="curve" smooth="yes"/>
      <point x="639" y="54"/>
      <point x="544" y="-9"/>
      <point x="317" y="-9" type="curve" smooth="yes"/>
      <point x="224" y="-9"/>
      <point x="40" y="2"/>
      <point x="40" y="2" type="curve"/>
      <point x="146" y="500" type="line"/>
      <point x="326" y="500" type="line"/>
      <point x="297" y="360" type="line"/>
    </contour>
    <contour>
      <point x="424" y="150" type="curve" smooth="yes"/>
      <point x="456" y="150"/>
      <point x="482" y="156"/>
      <point x="486" y="176" type="curve" smooth="yes"/>
      <point x="490" y="194"/>
      <point x="473" y="201"/>
      <point x="443" y="201" type="curve" smooth="yes"/>
      <point x="263" y="201" type="line"/>
      <point x="252" y="151" type="line"/>
      <point x="290" y="151"/>
      <point x="404" y="150"/>
    </contour>
  </outline>
</glyph>
<glyph name="uni0459" format="1">
  <advance width="1190" height="962"/>
  <unicode hex="0459"/>
  <outline>
    <contour>
      <point x="985" y="360" type="line" smooth="yes"/>
      <point x="1114" y="360"/>
      <point x="1224" y="315"/>
      <point x="1195" y="179" type="curve" smooth="yes"/>
      <point x="1175" y="86"/>
      <point x="1087" y="-11"/>
      <point x="883" y="-11" type="curve" smooth="yes"/>
      <point x="790" y="-11"/>
      <point x="567" y="0"/>
      <point x="567" y="0" type="curve"/>
      <point x="639" y="340" type="line"/>
      <point x="539" y="340" type="line" smooth="yes"/>
      <point x="509" y="340"/>
      <point x="488" y="324"/>
      <point x="467" y="291" type="curve" smooth="yes"/>
      <point x="383" y="162" type="line" smooth="yes"/>
      <point x="311" y="50"/>
      <point x="232" y="-13"/>
      <point x="72" y="-25" type="curve"/>
      <point x="21" y="105" type="line"/>
      <point x="120" y="127"/>
      <point x="174" y="144"/>
      <point x="216" y="213" type="curve" smooth="yes"/>
      <point x="303" y="351" type="line" smooth="yes"/>
      <point x="343" y="416"/>
      <point x="410" y="500"/>
      <point x="580" y="500" type="curve" smooth="yes"/>
      <point x="852" y="500" type="line"/>
      <point x="823" y="360" type="line"/>
    </contour>
    <contour>
      <point x="958" y="151" type="curve" smooth="yes"/>
      <point x="988" y="151"/>
      <point x="1010" y="157"/>
      <point x="1014" y="176" type="curve" smooth="yes"/>
      <point x="1018" y="193"/>
      <point x="1005" y="200"/>
      <point x="980" y="200" type="curve" smooth="yes"/>
      <point x="789" y="200" type="line"/>
      <point x="778" y="152" type="line"/>
      <point x="821" y="151"/>
      <point x="939" y="151"/>
    </contour>
  </outline>
</glyph>
<glyph name="uni0462" format="2">
  <advance width="659"/>
  <unicode hex="0462"/>
  <outline>
    <component base="uni042C" xOffset="10"/>
    <contour>
      <point x="137" y="641" type="line"/>
      <point x="592" y="641" type="line"/>
      <point x="567" y="524" type="line"/>
      <point x="112" y="524" type="line"/>
    </contour>
  </outline>
</glyph>
<glyph name="uni046A" format="1">
  <advance width="965" height="962"/>
  <unicode hex="046A"/>
  <outline>
    <contour>
      <point x="808" y="376" type="line" smooth="yes"/>
      <point x="914" y="376"/>
      <point x="996" y="327"/>
      <point x="975" y="231" type="curve" smooth="yes"/>
      <point x="926" y="0" type="line"/>
      <point x="746" y="0" type="line"/>
      <point x="781" y="165" type="line" smooth="yes"/>
      <point x="790" y="205"/>
      <point x="774" y="216"/>
      <point x="718" y="216" type="curve" smooth="yes"/>
      <point x="610" y="216" type="line"/>
      <point x="564" y="0" type="line"/>
      <point x="383" y="0" type="line"/>
      <point x="429" y="216" type="line"/>
      <point x="321" y="216" type="line" smooth="yes"/>
      <point x="269" y="216"/>
      <point x="248" y="205"/>
      <point x="239" y="166" type="curve" smooth="yes"/>
      <point x="204" y="0" type="line"/>
      <point x="36" y="0" type="line"/>
      <point x="86" y="233" type="line" smooth="yes"/>
      <point x="106" y="329"/>
      <point x="205" y="376"/>
      <point x="305" y="376" type="curve" smooth="yes"/>
      <point x="384" y="376" type="line"/>
      <point x="215" y="700" type="line"/>
      <point x="1034" y="700" type="line"/>
      <point x="734" y="376" type="line"/>
    </contour>
    <contour>
      <point x="566" y="425" type="line"/>
      <point x="673" y="540" type="line"/>
      <point x="509" y="540" type="line"/>
    </contour>
  </outline>
</glyph>
<glyph name="uni046B" format="2">
  <advance width="938" height="962"/>
  <unicode hex="046B"/>
  <outline>
    <contour>
      <point x="802" y="302" type="line" smooth="yes"/>
      <point x="919" y="302"/>
      <point x="963" y="234"/>
      <point x="950" y="172" type="curve" smooth="yes"/>
      <point x="913" y="0" type="line"/>
      <point x="733" y="0" type="line"/>
      <point x="752" y="89" type="line" smooth="yes"/>
      <point x="759" y="123"/>
      <point x="745" y="142"/>
      <point x="692" y="142" type="curve" smooth="yes"/>
      <point x="588" y="142" type="line"/>
      <point x="558" y="0" type="line"/>
      <point x="378" y="0" type="line"/>
      <point x="408" y="142" type="line"/>
      <point x="304" y="142" type="line" smooth="yes"/>
      <point x="246" y="142"/>
      <point x="233" y="123"/>
      <point x="226" y="90" type="curve" smooth="yes"/>
      <point x="207" y="0" type="line"/>
      <point x="27" y="0" type="line"/>
      <point x="64" y="172" type="line" smooth="yes"/>
      <point x="76" y="232"/>
      <point x="152" y="302"/>
      <point x="262" y="302" type="curve" smooth="yes"/>
      <point x="338" y="302" type="line"/>
      <point x="176" y="500" type="line"/>
      <point x="973" y="500" type="line"/>
      <point x="725" y="302" type="line"/>
    </contour>
    <contour>
      <point x="536" y="322" type="line"/>
      <point x="586" y="365" type="line"/>
      <point x="506" y="365" type="line"/>
    </contour>
  </outline>
</glyph>
<glyph name="uni0474" format="1">
  <advance width="792" height="962"/>
  <unicode hex="0474"/>
  <outline>
    <contour>
      <point x="872" y="723" type="curve"/>
      <point x="924" y="614" type="line"/>
      <point x="870" y="598"/>
      <point x="837" y="568"/>
      <point x="797" y="504" type="curve" smooth="yes"/>
      <point x="487" y="0" type="line"/>
      <point x="307" y="0" type="line"/>
      <point x="173" y="700" type="line"/>
      <point x="361" y="700" type="line"/>
      <point x="445" y="231" type="line"/>
      <point x="631" y="543" type="line" smooth="yes"/>
      <point x="697" y="653"/>
      <point x="782" y="712"/>
    </contour>
  </outline>
</glyph>
<glyph name="uni0475" format="1">
  <advance width="710" height="962"/>
  <unicode hex="0475"/>
  <outline>
    <contour>
      <point x="739" y="521" type="curve"/>
      <point x="794" y="396" type="line"/>
      <point x="717" y="380"/>
      <point x="682" y="352"/>
      <point x="639" y="288" type="curve" smooth="yes"/>
      <point x="446" y="0" type="line"/>
      <point x="235" y="0" type="line"/>
      <point x="123" y="500" type="line"/>
      <point x="313" y="500" type="line"/>
      <point x="380" y="185" type="line"/>
      <point x="494" y="361" type="line" smooth="yes"/>
      <point x="565" y="472"/>
      <point x="623" y="501"/>
    </contour>
  </outline>
</glyph>
<glyph name="uni0497" format="1">
  <advance width="849" height="962"/>
  <unicode hex="0497"/>
  <outline>
    <component base="uni0436"/>
    <contour>
      <point x="686" y="148" type="line"/>
      <point x="869" y="148" type="line"/>
      <point x="811" y="-125" type="line"/>
      <point x="651" y="-125" type="line"/>
      <point x="667" y="0" type="line"/>
      <point x="655" y="0" type="line"/>
    </contour>
  </outline>
</glyph>
<glyph name="uni04A0" format="2">
  <advance width="865"/>
  <unicode hex="04A0"/>
  <outline>
    <component base="K" xOffset="126.5"/>
    <contour>
      <point x="150" y="700" type="line"/>
      <point x="410" y="700" type="line"/>
      <point x="378" y="550" type="line"/>
      <point x="294" y="550" type="line"/>
      <point x="118" y="552" type="line"/>
    </contour>
  </outline>
</glyph>
<glyph name="uni04A2" format="2">
  <advance width="818" height="962"/>
  <unicode hex="04A2"/>
  <outline>
    <contour>
      <point x="623" y="149" type="line"/>
      <point x="827" y="149" type="line"/>
      <point x="768" y="-125" type="line"/>
      <point x="598" y="-125" type="line"/>
      <point x="613" y="0" type="line"/>
      <point x="591" y="0" type="line"/>
    </contour>
    <contour>
      <point x="601" y="438" type="line"/>
      <point x="657" y="700" type="line"/>
      <point x="838" y="700" type="line"/>
      <point x="689" y="0" type="line"/>
      <point x="508" y="0" type="line"/>
      <point x="568" y="280" type="line"/>
      <point x="282" y="280" type="line"/>
      <point x="222" y="0" type="line"/>
      <point x="41" y="0" type="line"/>
      <point x="190" y="700" type="line"/>
      <point x="371" y="700" type="line"/>
      <point x="315" y="438" type="line"/>
    </contour>
  </outline>
</glyph>
<glyph name="uni04A4" format="2">
  <advance width="831"/>
  <unicode hex="04A4"/>
  <outline>
    <component base="H"/>
    <contour>
      <point x="750" y="700" type="line"/>
      <point x="966" y="700" type="line"/>
      <point x="934" y="552" type="line"/>
      <point x="802" y="550" type="line"/>
      <point x="718" y="550" type="line"/>
    </contour>
  </outline>
</glyph>
<glyph name="uni04A5" format="1">
  <advance width="758" height="962"/>
  <unicode hex="04A5"/>
  <outline>
    <component base="uni043D"/>
    <contour>
      <point x="634" y="500" type="line"/>
      <point x="854" y="500" type="line"/>
      <point x="823" y="352" type="line"/>
      <point x="673" y="350" type="line"/>
      <point x="602" y="350" type="line"/>
    </contour>
  </outline>
</glyph>
<glyph name="uni04AF" format="2">
  <advance width="701"/>
  <unicode hex="04AF"/>
  <outline>
    <contour>
      <point x="774" y="500" type="line"/>
      <point x="441" y="0" type="line"/>
      <point x="395" y="-218" type="line"/>
      <point x="219" y="-194" type="line"/>
      <point x="260" y="0" type="line"/>
      <point x="138" y="500" type="line"/>
      <point x="336" y="500" type="line"/>
      <point x="397" y="200" type="line"/>
      <point x="576" y="500" type="line"/>
    </contour>
  </outline>
</glyph>
<glyph name="uni04B1" format="1">
  <advance width="701" height="962"/>
  <unicode hex="04B1"/>
  <outline>
    <component base="uni04AF"/>
    <contour>
      <point x="132" y="138" type="line"/>
      <point x="629" y="138" type="line"/>
      <point x="600" y="0" type="line"/>
      <point x="103" y="0" type="line"/>
    </contour>
  </outline>
</glyph>
<glyph name="uni04BA" format="1">
  <advance width="744" height="962"/>
  <unicode hex="04BA"/>
  <outline>
    <contour>
      <point x="367" y="700" type="line"/>
      <point x="309" y="426" type="line"/>
      <point x="362" y="448"/>
      <point x="434" y="458"/>
      <point x="520" y="458" type="curve" smooth="yes"/>
      <point x="680" y="458"/>
      <point x="788" y="387"/>
      <point x="758" y="245" type="curve" smooth="yes"/>
      <point x="706" y="-1" type="line"/>
      <point x="526" y="-1" type="line"/>
      <point x="576" y="236" type="line" smooth="yes"/>
      <point x="585" y="276"/>
      <point x="539" y="298"/>
      <point x="425" y="298" type="curve" smooth="yes"/>
      <point x="350" y="298"/>
      <point x="276" y="274"/>
      <point x="270" y="245" type="curve" smooth="yes"/>
      <point x="218" y="-1" type="line"/>
      <point x="38" y="-1" type="line"/>
      <point x="187" y="700" type="line"/>
    </contour>
  </outline>
</glyph>
<glyph name="uni04CC" format="1">
  <advance width="710" height="962"/>
  <unicode hex="04CC"/>
  <outline>
    <contour>
      <point x="355" y="139" type="line"/>
      <point x="554" y="139" type="line"/>
      <point x="524" y="0" type="line"/>
      <point x="498" y="0" type="line"/>
      <point x="456" y="-125" type="line"/>
      <point x="298" y="-125" type="line"/>
    </contour>
    <contour>
      <point x="437" y="0" type="line"/>
      <point x="478" y="192" type="line"/>
      <point x="449" y="179"/>
      <point x="386" y="165"/>
      <point x="278" y="165" type="curve" smooth="yes"/>
      <point x="196" y="165"/>
      <point x="73" y="191"/>
      <point x="100" y="320" type="curve" smooth="yes"/>
      <point x="138" y="500" type="line"/>
      <point x="318" y="500" type="line"/>
      <point x="288" y="359" type="line" smooth="yes"/>
      <point x="282" y="328"/>
      <point x="316" y="316"/>
      <point x="381" y="316" type="curve" smooth="yes"/>
      <point x="455" y="316"/>
      <point x="507" y="330"/>
      <point x="514" y="363" type="curve" smooth="yes"/>
      <point x="518" y="383" type="line" smooth="yes"/>
      <point x="531" y="442"/>
      <point x="582" y="513"/>
      <point x="737" y="513" type="curve"/>
      <point x="773" y="385" type="line"/>
      <point x="712" y="377"/>
      <point x="691" y="348"/>
      <point x="684" y="314" type="curve" smooth="yes"/>
      <point x="617" y="0" type="line"/>
    </contour>
  </outline>
</glyph>
<glyph name="uni04D8" format="2">
  <advance width="700" height="962"/>
  <unicode hex="04D8"/>
  <outline>
    <contour>
      <point x="538" y="711" type="curve" smooth="yes"/>
      <point x="716" y="711"/>
      <point x="804" y="642"/>
      <point x="776" y="510" type="curve" smooth="yes"/>
      <point x="708" y="190" type="line" smooth="yes"/>
      <point x="677" y="40"/>
      <point x="534" y="-13"/>
      <point x="347" y="-13" type="curve" smooth="yes"/>
      <point x="148" y="-13"/>
      <point x="45" y="47"/>
      <point x="75" y="190" type="curve" smooth="yes"/>
      <point x="114" y="373" type="line"/>
      <point x="574" y="390" type="line"/>
      <point x="597" y="499" type="line" smooth="yes"/>
      <point x="606" y="543"/>
      <point x="564" y="560"/>
      <point x="476" y="560" type="curve" smooth="yes"/>
      <point x="440" y="560"/>
      <point x="343" y="555"/>
      <point x="308" y="548" type="curve"/>
      <point x="306" y="676" type="line"/>
      <point x="383" y="700"/>
      <point x="466" y="711"/>
    </contour>
    <contour>
      <point x="383" y="152" type="curve" smooth="yes"/>
      <point x="480" y="152"/>
      <point x="527" y="171"/>
      <point x="533" y="198" type="curve" smooth="yes"/>
      <point x="545" y="254" type="line"/>
      <point x="267" y="240" type="line"/>
      <point x="258" y="199" type="line" smooth="yes"/>
      <point x="253" y="172"/>
      <point x="292" y="152"/>
    </contour>
  </outline>
</glyph>
<glyph name="uni1E9E" format="2">
  <advance width="816"/>
  <unicode hex="1E9E"/>
  <outline>
    <contour>
      <point x="190" y="700" type="line"/>
      <point x="858" y="700" type="line"/>
      <point x="824" y="540" type="line"/>
      <point x="678" y="413" type="line"/>
      <point x="686" y="412" type="line" smooth="yes"/>
      <point x="806" y="396"/>
      <point x="861" y="321"/>
      <point x="838" y="212" type="curve" smooth="yes"/>
      <point x="811" y="83"/>
      <point x="658" y="-12"/>
      <point x="469" y="-12" type="curve" smooth="yes"/>
      <point x="388.093" y="-12"/>
      <point x="315.925" y="-3.2612"/>
      <point x="251.162" y="26.2225" type="curve"/>
      <point x="335.477" y="172.232" type="line"/>
      <point x="376.344" y="158.464"/>
      <point x="437.547" y="153"/>
      <point x="503" y="153" type="curve" smooth="yes"/>
      <point x="594" y="153"/>
      <point x="647.652" y="180.853"/>
      <point x="655" y="215" type="curve" smooth="yes"/>
      <point x="664.654" y="259.864"/>
      <point x="595" y="275"/>
      <point x="509" y="275" type="curve" smooth="yes"/>
      <point x="326" y="275" type="line"/>
      <point x="609" y="540" type="line"/>
      <point x="336" y="540" type="line"/>
      <point x="221" y="0" type="line"/>
      <point x="41" y="0" type="line"/>
    </contour>
  </outline>
</glyph>
<glyph name="quoteleft" format="1">
  <advance width="177" height="962"/>
  <unicode hex="2018"/>
  <outline>
    <contour>
      <point x="282" y="713" type="line"/>
      <point x="268" y="697"/>
      <point x="255" y="679"/>
      <point x="249" y="669" type="curve"/>
      <point x="282" y="660"/>
      <point x="301" y="631"/>
      <point x="293" y="595" type="curve" smooth="yes"/>
      <point x="284" y="552"/>
      <point x="242" y="517"/>
      <point x="198" y="517" type="curve" smooth="yes"/>
      <point x="157" y="517"/>
      <point x="130" y="552"/>
      <point x="139" y="595" type="curve" smooth="yes"/>
      <point x="161" y="697"/>
      <point x="258" y="735"/>
      <point x="256" y="735" type="curve"/>
    </contour>
  </outline>
</glyph>
<glyph name="ellipsis" format="1">
  <advance width="544" height="962"/>
  <unicode hex="2026"/>
  <outline>
    <contour>
      <point x="111" y="137" type="curve" smooth="yes"/>
      <point x="154" y="137"/>
      <point x="182" y="102"/>
      <point x="173" y="60" type="curve" smooth="yes"/>
      <point x="164" y="17"/>
      <point x="121" y="-18"/>
      <point x="78" y="-18" type="curve" smooth="yes"/>
      <point x="34" y="-18"/>
      <point x="8" y="17"/>
      <point x="17" y="60" type="curve" smooth="yes"/>
      <point x="26" y="102"/>
      <point x="67" y="137"/>
    </contour>
    <contour>
      <point x="302" y="137" type="curve" smooth="yes"/>
      <point x="345" y="137"/>
      <point x="373" y="102"/>
      <point x="364" y="60" type="curve" smooth="yes"/>
      <point x="355" y="17"/>
      <point x="312" y="-18"/>
      <point x="269" y="-18" type="curve" smooth="yes"/>
      <point x="225" y="-18"/>
      <point x="199" y="17"/>
      <point x="208" y="60" type="curve" smooth="yes"/>
      <point x="217" y="102"/>
      <point x="258" y="137"/>
    </contour>
    <contour>
      <point x="491" y="137" type="curve" smooth="yes"/>
      <point x="534" y="137"/>
      <point x="562" y="102"/>
      <point x="553" y="60" type="curve" smooth="yes"/>
      <point x="544" y="17"/>
      <point x="501" y="-18"/>
      <point x="458" y="-18" type="curve" smooth="yes"/>
      <point x="414" y="-18"/>
      <point x="388" y="17"/>
      <point x="397" y="60" type="curve" smooth="yes"/>
      <point x="406" y="102"/>
      <point x="447" y="137"/>
    </contour>
  </outline>
</glyph>
<glyph name="uni20AE" format="2">
  <advance width="635"/>
  <unicode hex="20AE"/>
  <outline>
    <component base="T" xOffset="1"/>
    <contour>
      <point x="589" y="338" type="line"/>
      <point x="607" y="218" type="line"/>
      <point x="141" y="86" type="line"/>
      <point x="121" y="207" type="line"/>
    </contour>
    <contour>
      <point x="625" y="506" type="line"/>
      <point x="643" y="386" type="line"/>
      <point x="177" y="254" type="line"/>
      <point x="157" y="375" type="line"/>
    </contour>
  </outline>
</glyph>
<glyph name="uni20B4" format="1">
  <advance width="819" height="962"/>
  <unicode hex="20B4"/>
  <outline>
    <contour>
      <point x="161" y="427" type="line"/>
      <point x="191" y="511" type="line"/>
      <point x="806" y="427" type="line"/>
      <point x="776" y="343" type="line"/>
    </contour>
    <contour>
      <point x="107" y="310" type="line"/>
      <point x="137" y="394" type="line"/>
      <point x="752" y="310" type="line"/>
      <point x="721" y="226" type="line"/>
    </contour>
    <contour>
      <point x="289" y="533" type="curve"/>
      <point x="275" y="673" type="line"/>
      <point x="355" y="699"/>
      <point x="441" y="710"/>
      <point x="524" y="710" type="curve" smooth="yes"/>
      <point x="676" y="710"/>
      <point x="868" y="668"/>
      <point x="835" y="513" type="curve" smooth="yes"/>
      <point x="788" y="291"/>
      <point x="274" y="281"/>
      <point x="256" y="199" type="curve" smooth="yes"/>
      <point x="248" y="162"/>
      <point x="316" y="148"/>
      <point x="421" y="148" type="curve" smooth="yes"/>
      <point x="527" y="148"/>
      <point x="631" y="165"/>
      <point x="716" y="210" type="curve"/>
      <point x="773" y="88" type="line"/>
      <point x="660" y="22"/>
      <point x="528" y="-12"/>
      <point x="399" y="-12" type="curve" smooth="yes"/>
      <point x="199" y="-12"/>
      <point x="37" y="46"/>
      <point x="72" y="214" type="curve" smooth="yes"/>
      <point x="119" y="432"/>
      <point x="633" y="437"/>
      <point x="650" y="519" type="curve" smooth="yes"/>
      <point x="658" y="553"/>
      <point x="569" y="557"/>
      <point x="494" y="557" type="curve" smooth="yes"/>
      <point x="416" y="557"/>
      <point x="358" y="550"/>
    </contour>
  </outline>
</glyph>
<glyph name="y_lower_alt" format="2">
  <advance width="725"/>
  <unicode hex="9998"/>
  <outline>
    <contour>
      <point x="137" y="-209" type="line"/>
      <point x="263" y="-24" type="line"/>
      <point x="126" y="500" type="line"/>
      <point x="322" y="500" type="line"/>
      <point x="402" y="185" type="line"/>
      <point x="615" y="500" type="line"/>
      <point x="810" y="500" type="line"/>
      <point x="332" y="-209" type="line"/>
    </contour>
  </outline>
</glyph>
<glyph name="commaturnedbelowcomb" format="1">
  <advance width="267" height="962"/>
  <outline>
    <contour>
      <point x="48" y="-213" type="line"/>
      <point x="63" y="-200"/>
      <point x="72" y="-190"/>
      <point x="78" y="-180" type="curve"/>
      <point x="45" y="-171"/>
      <point x="26" y="-142"/>
      <point x="33" y="-106" type="curve"/>
      <point x="43" y="-63"/>
      <point x="85" y="-28"/>
      <point x="129" y="-28" type="curve" smooth="yes"/>
      <point x="170" y="-28"/>
      <point x="197" y="-63"/>
      <point x="187" y="-106" type="curve"/>
      <point x="166" y="-208"/>
      <point x="71" y="-235"/>
      <point x="73" y="-235" type="curve"/>
    </contour>
  </outline>
</glyph>
<glyph name="descendercomb" format="2">
  <advance width="250"/>
  <outline>
    <contour>
      <point x="64" y="9" type="line"/>
      <point x="184" y="9" type="line"/>
      <point x="182" y="1" type="line"/>
      <point x="218" y="-58" type="line" smooth="yes"/>
      <point x="275" y="-154"/>
      <point x="164" y="-267"/>
      <point x="63" y="-224" type="curve" smooth="yes"/>
      <point x="-44" y="-178" type="line"/>
      <point x="18" y="-87" type="line"/>
      <point x="116" y="-133" type="line" smooth="yes"/>
      <point x="128" y="-139"/>
      <point x="140" y="-124"/>
      <point x="134" y="-115" type="curve" smooth="yes"/>
      <point x="62" y="0" type="line"/>
    </contour>
  </outline>
</glyph>
